<svg xmlns="http://www.w3.org/2000/svg" viewBox="0 0 476.81 340.98"><defs><style>.cls-1{fill:#fc6542;}.cls-2{fill:#fff;}</style></defs><title>Expertise_a bit of both</title><g id="Layer_2" data-name="Layer 2"><g id="Layer_1-2" data-name="Layer 1"><path class="cls-1" d="M35,140.61a.71.71,0,0,1,0-.29l6-16.63a.8.8,0,0,1,.23-.38.63.63,0,0,1,.39-.1h3.6a.72.72,0,0,1,.46.14.67.67,0,0,1,.26.38l5.93,16.64a.76.76,0,0,1,.05.21.57.57,0,0,1-.08.31.3.3,0,0,1-.26.12H48.06a.43.43,0,0,1-.46-.33l-1.25-3.51a.53.53,0,0,0-.11-.2.27.27,0,0,0-.2-.06H40.18a.3.3,0,0,0-.31.24L38.6,140.7a.5.5,0,0,1-.5.31H35.34C35.1,141,35,140.88,35,140.61Zm10.08-6.89c.16,0,.24-.07.24-.19a.61.61,0,0,0,0-.22l-2-5.62c0-.09-.11-.14-.17-.14s-.1.06-.15.17l-2,5.59a.79.79,0,0,0,0,.22c0,.12.08.19.26.19Z"/><path class="cls-1" d="M95.43,140.89a.41.41,0,0,1-.12-.31V123.71a.54.54,0,0,1,.13-.37.48.48,0,0,1,.35-.13h6.51a10.06,10.06,0,0,1,5.38,1.18,3.9,3.9,0,0,1,1.86,3.49,3.56,3.56,0,0,1-.72,2.27,5.67,5.67,0,0,1-2.42,1.62.1.1,0,0,0-.07.1.08.08,0,0,0,.07.09,6,6,0,0,1,2.72,1.62,3.89,3.89,0,0,1,.86,2.61,4.06,4.06,0,0,1-1.84,3.64,10.33,10.33,0,0,1-5.53,1.18H95.77A.45.45,0,0,1,95.43,140.89Zm7.23-10.34a3.28,3.28,0,0,0,2-.56,1.89,1.89,0,0,0,.78-1.62,2,2,0,0,0-.81-1.72,3.48,3.48,0,0,0-2.14-.61H100a.54.54,0,0,0-.35.09.43.43,0,0,0-.11.32v3.67a.62.62,0,0,0,.07.33.31.31,0,0,0,.27.1Zm-.17,7.63a3.63,3.63,0,0,0,2.33-.64,2.12,2.12,0,0,0,.79-1.74,2,2,0,0,0-.82-1.71,3.43,3.43,0,0,0-2.13-.61H100a.59.59,0,0,0-.36.08.41.41,0,0,0-.1.32v3.84a.74.74,0,0,0,.07.35.31.31,0,0,0,.27.11Z"/><path class="cls-1" d="M134.48,123.21c.26,0,.38.14.38.43v16.8a.56.56,0,0,1-.14.44.73.73,0,0,1-.5.13h-3a.57.57,0,0,1-.41-.12.51.51,0,0,1-.12-.38V123.66q0-.45.39-.45Z"/><path class="cls-1" d="M155.34,123.64a.39.39,0,0,1,.13-.31.5.5,0,0,1,.35-.12h13.77c.32,0,.48.14.48.43v2.23c0,.24-.14.36-.43.36h-4.49c-.17,0-.26.08-.26.24v14.09c0,.3-.14.45-.41.45h-3.43c-.24,0-.36-.13-.36-.4V126.54a.38.38,0,0,0-.06-.24.25.25,0,0,0-.21-.07h-4.63q-.45,0-.45-.36Z"/><path class="cls-1" d="M216.76,140.16a7.16,7.16,0,0,1-2.85-3.13,10.88,10.88,0,0,1-1-4.85,11.18,11.18,0,0,1,1-4.91,7.42,7.42,0,0,1,2.87-3.19,8.33,8.33,0,0,1,4.35-1.12,8.22,8.22,0,0,1,4.32,1.12,7.46,7.46,0,0,1,2.86,3.19,11.15,11.15,0,0,1,1,4.89,11,11,0,0,1-1,4.83,7.28,7.28,0,0,1-2.84,3.16,8.37,8.37,0,0,1-4.35,1.1A8.47,8.47,0,0,1,216.76,140.16Zm7.28-3.3a9.1,9.1,0,0,0,.9-4.65,9.43,9.43,0,0,0-.93-4.8,3.12,3.12,0,0,0-2.87-1.52,3.15,3.15,0,0,0-2.91,1.52,9.43,9.43,0,0,0-.93,4.8,9,9,0,0,0,.92,4.65,3.66,3.66,0,0,0,5.82,0Z"/><path class="cls-1" d="M250.47,123.21h11.9c.24,0,.36.13.36.4l0,2.16q0,.51-.48.51h-7.49a.51.51,0,0,0-.34.09.35.35,0,0,0-.11.29v3.72q0,.39.36.39h5.2c.26,0,.39.12.39.38v2.28c0,.22-.12.34-.36.34h-5.26c-.22,0-.33.1-.33.31v6.38a.52.52,0,0,1-.15.43.73.73,0,0,1-.48.12h-3a.55.55,0,0,1-.4-.12.51.51,0,0,1-.12-.38V123.66C250.09,123.36,250.22,123.21,250.47,123.21Z"/><path class="cls-1" d="M306.29,140.89a.41.41,0,0,1-.11-.31V123.71a.49.49,0,0,1,.13-.37.45.45,0,0,1,.34-.13h6.51a10.1,10.1,0,0,1,5.39,1.18,3.9,3.9,0,0,1,1.86,3.49,3.56,3.56,0,0,1-.72,2.27,5.71,5.71,0,0,1-2.43,1.62.11.11,0,0,0-.07.1.09.09,0,0,0,.07.09,6.1,6.1,0,0,1,2.73,1.62,3.94,3.94,0,0,1,.85,2.61,4,4,0,0,1-1.84,3.64,10.31,10.31,0,0,1-5.53,1.18h-6.84A.47.47,0,0,1,306.29,140.89Zm7.23-10.34a3.33,3.33,0,0,0,2-.56,1.9,1.9,0,0,0,.77-1.62,2,2,0,0,0-.81-1.72,3.46,3.46,0,0,0-2.14-.61h-2.47a.56.56,0,0,0-.35.09.43.43,0,0,0-.11.32v3.67a.53.53,0,0,0,.08.33c0,.07.13.1.26.1Zm-.17,7.63a3.63,3.63,0,0,0,2.33-.64,2.09,2.09,0,0,0,.79-1.74,2,2,0,0,0-.82-1.71,3.43,3.43,0,0,0-2.13-.61h-2.69a.59.59,0,0,0-.36.08.45.45,0,0,0-.1.32v3.84a.62.62,0,0,0,.08.35.28.28,0,0,0,.26.11Z"/><path class="cls-1" d="M344.78,140.16a7.24,7.24,0,0,1-2.86-3.13,12.41,12.41,0,0,1,0-9.76,7.4,7.4,0,0,1,2.86-3.19,8.34,8.34,0,0,1,4.36-1.12,8.22,8.22,0,0,1,4.32,1.12,7.44,7.44,0,0,1,2.85,3.19,12.31,12.31,0,0,1,0,9.72,7.36,7.36,0,0,1-2.85,3.16,8.36,8.36,0,0,1-4.34,1.1A8.47,8.47,0,0,1,344.78,140.16Zm7.27-3.3a9.1,9.1,0,0,0,.9-4.65,9.56,9.56,0,0,0-.92-4.8,3.14,3.14,0,0,0-2.87-1.52,3.18,3.18,0,0,0-2.92,1.52,9.56,9.56,0,0,0-.92,4.8,9,9,0,0,0,.91,4.65,3.21,3.21,0,0,0,2.93,1.44A3.15,3.15,0,0,0,352.05,136.86Z"/><path class="cls-1" d="M376.11,123.64a.39.39,0,0,1,.13-.31.51.51,0,0,1,.35-.12h13.78c.32,0,.48.14.48.43v2.23c0,.24-.15.36-.44.36h-4.48q-.27,0-.27.24v14.09c0,.3-.13.45-.41.45h-3.43c-.24,0-.36-.13-.36-.4V126.54a.38.38,0,0,0-.06-.24.24.24,0,0,0-.2-.07h-4.63c-.31,0-.46-.12-.46-.36Z"/><path class="cls-1" d="M415.85,133.41a.28.28,0,0,0-.22.09.33.33,0,0,0-.09.22v6.74a.54.54,0,0,1-.15.42.77.77,0,0,1-.5.13h-3a.57.57,0,0,1-.41-.12.51.51,0,0,1-.12-.38V123.66q0-.45.39-.45h3.43c.25,0,.38.14.38.43v6.14c0,.27.12.41.36.41h5.55a.34.34,0,0,0,.38-.39v-6.16c0-.29.12-.43.36-.43h3.43c.27,0,.41.15.41.45v16.85c0,.34-.18.5-.53.5h-3.05a.77.77,0,0,1-.48-.12.55.55,0,0,1-.14-.43v-6.74a.32.32,0,0,0-.08-.23.34.34,0,0,0-.26-.08Z"/><path class="cls-1" d="M476.81,92.5h-5V5h-222V0H473.61a3.2,3.2,0,0,1,3.2,3.2Z"/><path class="cls-1" d="M5,92.5H0V3.2A3.21,3.21,0,0,1,3.2,0h130V5H5Z"/><path class="cls-1" d="M473.61,341H3.2a3.2,3.2,0,0,1-3.2-3.2V237.48H5V336H471.81V185.58h5v152.2A3.2,3.2,0,0,1,473.61,341Z"/><path class="cls-2" d="M182.18,249.21h-24A1.2,1.2,0,0,1,157,248v-84.3h1V248a.19.19,0,0,0,.2.2h24Z"/><path class="cls-2" d="M181.89,254.35a5.64,5.64,0,1,0-5.64-5.64A5.63,5.63,0,0,0,181.89,254.35Z"/><path class="cls-2" d="M182.18,306.07H158.24a1.2,1.2,0,0,1-1.2-1.2V273.38h1v31.49a.2.2,0,0,0,.2.2h23.94Z"/><path class="cls-2" d="M181.9,311.21a5.64,5.64,0,1,0-5.64-5.64A5.64,5.64,0,0,0,181.9,311.21Z"/><path d="M205.54,313.08a.57.57,0,0,1,0-.22l4.48-12.47a.79.79,0,0,1,.17-.28.51.51,0,0,1,.3-.08h2.7a.55.55,0,0,1,.34.11.55.55,0,0,1,.2.29l4.45,12.47a.69.69,0,0,1,0,.16.43.43,0,0,1-.06.24.22.22,0,0,1-.19.09h-2.65a.33.33,0,0,1-.34-.26l-.93-2.62a.76.76,0,0,0-.08-.16.24.24,0,0,0-.16,0h-4.39a.22.22,0,0,0-.23.18l-1,2.66a.38.38,0,0,1-.38.24h-2.07C205.63,313.39,205.54,313.29,205.54,313.08Zm7.56-5.17c.12,0,.18,0,.18-.14a.67.67,0,0,0,0-.16l-1.52-4.21c0-.08-.07-.11-.12-.11s-.07,0-.11.12l-1.53,4.2a.73.73,0,0,0,0,.16c0,.1.07.14.2.14Z"/><path d="M228.35,300c.19,0,.29.11.29.32V313a.45.45,0,0,1-.11.33.6.6,0,0,1-.38.1h-2.27a.41.41,0,0,1-.3-.09.4.4,0,0,1-.09-.29V300.37c0-.23.09-.34.29-.34Z"/><path d="M206.5,239.85h8.93c.18,0,.27.1.27.31l0,1.62a.32.32,0,0,1-.36.37H209.7a.38.38,0,0,0-.26.08.27.27,0,0,0-.08.21v2.79c0,.19.09.29.27.29h3.91c.19,0,.28.1.28.29v1.71c0,.17-.09.25-.26.25h-3.95c-.17,0-.25.08-.25.23v4.79a.42.42,0,0,1-.11.33.56.56,0,0,1-.36.09h-2.28a.43.43,0,0,1-.31-.09.4.4,0,0,1-.09-.29V240.19C206.21,240,206.31,239.85,206.5,239.85Z"/><path d="M232.19,252.19a6,6,0,0,1-4,1.2,5.42,5.42,0,0,1-4.12-1.35,5.84,5.84,0,0,1-1.26-4.11v-7.72a.37.37,0,0,1,.08-.26.24.24,0,0,1,.21-.1h2.59c.18,0,.27.11.27.32v8.16a3,3,0,0,0,.62,2.13,2.38,2.38,0,0,0,1.84.68c1.71,0,2.56-1,2.56-2.87v-8.08c0-.23.09-.34.27-.34h2.05c.18,0,.27.11.27.32v8.09A5,5,0,0,1,232.19,252.19Z"/><path d="M241.63,239.85h2.58c.19,0,.29.11.29.32v10.5a.3.3,0,0,0,0,.18.21.21,0,0,0,.15.05h5.75c.21,0,.32.09.32.27v1.71a.32.32,0,0,1-.09.24.33.33,0,0,1-.25.09h-8.68a.41.41,0,0,1-.3-.09.4.4,0,0,1-.09-.29V240.19C241.35,240,241.44,239.85,241.63,239.85Z"/><path d="M258.32,239.85h2.58c.19,0,.28.11.28.32v10.5a.3.3,0,0,0,.05.18.21.21,0,0,0,.15.05h5.74q.33,0,.33.27v1.71a.32.32,0,0,1-.09.24.36.36,0,0,1-.26.09h-8.67a.44.44,0,0,1-.31-.09.4.4,0,0,1-.09-.29V240.19C258,240,258.13,239.85,258.32,239.85Z"/><path d="M290.42,242.18a3.51,3.51,0,0,0-1.57-.3,3,3,0,0,0-1.67.4,1.2,1.2,0,0,0-.58,1c0,.63.49,1.08,1.46,1.37l2.84.81a4.61,4.61,0,0,1,2.39,1.42,3.63,3.63,0,0,1,.78,2.34,3.75,3.75,0,0,1-.65,2.19,4.06,4.06,0,0,1-1.86,1.43,7.33,7.33,0,0,1-2.85.51,8.4,8.4,0,0,1-3.32-.63,4.55,4.55,0,0,1-2.16-1.7.55.55,0,0,1-.07-.23.44.44,0,0,1,.18-.31l1.39-1a.65.65,0,0,1,.32-.11.32.32,0,0,1,.27.15,4.52,4.52,0,0,0,1.35,1.22,3.92,3.92,0,0,0,1.82.36,4,4,0,0,0,1.89-.38,1.21,1.21,0,0,0,.68-1.13,1.12,1.12,0,0,0-.34-.83,2.72,2.72,0,0,0-1.15-.59l-2.72-.78a4.61,4.61,0,0,1-2.39-1.45,3.61,3.61,0,0,1-.21-4.38,4.32,4.32,0,0,1,1.81-1.45,6.54,6.54,0,0,1,2.7-.53,7.3,7.3,0,0,1,2.77.51,4.6,4.6,0,0,1,1.93,1.38.45.45,0,0,1,.1.25.26.26,0,0,1-.1.2l-1.52,1.12a.4.4,0,0,1-.16.07c-.06,0-.15-.07-.28-.2A3.56,3.56,0,0,0,290.42,242.18Z"/><path d="M300.75,240.17a.29.29,0,0,1,.1-.23.36.36,0,0,1,.26-.09h10.33c.24,0,.36.11.36.32v1.68q0,.27-.33.27h-3.36c-.13,0-.2.06-.2.18v10.56c0,.23-.1.35-.31.35H305c-.18,0-.27-.11-.27-.31V242.35a.3.3,0,0,0,0-.18.23.23,0,0,0-.16,0h-3.47c-.23,0-.34-.09-.34-.27Z"/><path d="M318.4,252.9a.57.57,0,0,1,0-.22l4.48-12.47a.79.79,0,0,1,.17-.28.51.51,0,0,1,.3-.08h2.7a.55.55,0,0,1,.34.11.55.55,0,0,1,.2.29l4.45,12.47a.69.69,0,0,1,0,.16.43.43,0,0,1-.06.24.22.22,0,0,1-.19.09h-2.65a.33.33,0,0,1-.34-.26l-.93-2.62a.34.34,0,0,0-.09-.16s-.08,0-.15,0h-4.39a.22.22,0,0,0-.23.18l-1,2.66a.38.38,0,0,1-.38.24h-2.07C318.49,253.21,318.4,253.1,318.4,252.9Zm7.56-5.17c.12,0,.18,0,.18-.14a.67.67,0,0,0,0-.16l-1.52-4.21c0-.08-.07-.11-.12-.11s-.07,0-.11.12l-1.53,4.2a.73.73,0,0,0,0,.16c0,.1.07.14.2.14Z"/><path d="M346.48,240.19a5.16,5.16,0,0,1,1.9,1.42,4.28,4.28,0,0,1,.95,2,1.23,1.23,0,0,1,0,.29c0,.07,0,.12-.05.14a.49.49,0,0,1-.16.06l-2.43.16q-.17,0-.21-.06a.43.43,0,0,1-.08-.21,3,3,0,0,0-.79-1.57,2.21,2.21,0,0,0-1.59-.57q-2.88,0-2.88,4.6a6.47,6.47,0,0,0,.73,3.5,2.43,2.43,0,0,0,2.19,1.09,3,3,0,0,0,1.83-.54,3.69,3.69,0,0,0,1.21-1.76.25.25,0,0,1,.24-.13l.16,0,1.76.38c.17.06.24.21.2.45a4.67,4.67,0,0,1-.84,1.67,5.54,5.54,0,0,1-1.84,1.57,5.77,5.77,0,0,1-2.85.67,5.86,5.86,0,0,1-3.23-.88,5.66,5.66,0,0,1-2.11-2.44,8.56,8.56,0,0,1-.74-3.65,8.17,8.17,0,0,1,.74-3.58,5.42,5.42,0,0,1,2.11-2.35,6.18,6.18,0,0,1,3.23-.82A6,6,0,0,1,346.48,240.19Z"/><path d="M368.37,253c0,.14-.08.22-.25.22h-2.7a.53.53,0,0,1-.52-.29l-2.9-5.65c0-.08-.08-.11-.13-.11s-.12.06-.21.18l-1.6,1.91a.51.51,0,0,0-.11.37v3.17a.39.39,0,0,1-.12.32.61.61,0,0,1-.37.1h-2.27a.47.47,0,0,1-.3-.08.38.38,0,0,1-.09-.28V240.19c0-.23.09-.34.29-.34h2.59c.18,0,.27.1.27.31v5.38c0,.12,0,.18.07.18s.08,0,.14-.11l4.36-5.47a.72.72,0,0,1,.23-.23.94.94,0,0,1,.38-.06h2.14a.45.45,0,0,1,.27.07.21.21,0,0,1,.09.16.21.21,0,0,1-.07.18l-3.45,4.05a.5.5,0,0,0-.09.22.59.59,0,0,0,.05.22l4.25,8A.63.63,0,0,1,368.37,253Z"/></g></g></svg>