<svg xmlns="http://www.w3.org/2000/svg" viewBox="0 0 476.81 505.38"><defs><style>.cls-1{fill:#fc6542;}</style></defs><title>Expertise_Software</title><g id="Layer_2" data-name="Layer 2"><g id="Layer_1-2" data-name="Layer 1"><path class="cls-1" d="M179.6,117.18a7.68,7.68,0,0,1,5.31,1.82,6.39,6.39,0,0,1,1.74,4.78,6.59,6.59,0,0,1-1.81,4.95,7.32,7.32,0,0,1-5.33,1.79H175.6a.44.44,0,0,1-.31-.1.46.46,0,0,1-.1-.34V117.52a.38.38,0,0,1,.09-.28.47.47,0,0,1,.3-.08Zm-1.26,2.46v8.41a.33.33,0,0,0,0,.2.29.29,0,0,0,.19.05h.34a4.91,4.91,0,0,0,3.53-7.77,4,4,0,0,0-2.84-1.1l-1.1,0C178.39,119.39,178.34,119.48,178.34,119.64Z"/><path class="cls-1" d="M197,117.16c.19,0,.29.11.29.32v12.6a.46.46,0,0,1-.11.34.6.6,0,0,1-.38.1H194.5a.41.41,0,0,1-.3-.09.4.4,0,0,1-.09-.29V117.5c0-.23.09-.34.28-.34Z"/><path class="cls-1" d="M207.54,129.85a5.58,5.58,0,0,1-2.09-2.38,9,9,0,0,1,0-7.23,5.62,5.62,0,0,1,2.18-2.41,6.07,6.07,0,0,1,3.24-.85,6,6,0,0,1,2.56.54,5.27,5.27,0,0,1,1.89,1.41,4,4,0,0,1,.91,1.87.7.7,0,0,1,0,.27c0,.13-.08.2-.23.21l-2.38.36a.27.27,0,0,1-.2-.06.57.57,0,0,1-.09-.23,2.68,2.68,0,0,0-.85-1.54,2.42,2.42,0,0,0-1.72-.62,2.37,2.37,0,0,0-2.11,1.1,6.54,6.54,0,0,0-.72,3.49,6.47,6.47,0,0,0,.76,3.6,2.76,2.76,0,0,0,3.9.52,2.74,2.74,0,0,0,.85-1.47l0-.52a.18.18,0,0,0,0-.11c0-.11-.06-.16-.19-.16h-2.18a.34.34,0,0,1-.22-.07.33.33,0,0,1-.07-.24V124c0-.17.1-.25.29-.25l4.8,0a.57.57,0,0,1,.39.12.37.37,0,0,1,.13.31v6.07a.24.24,0,0,1-.07.19.26.26,0,0,1-.19.08h-.58a.51.51,0,0,1-.47-.29l-.52-1.3c0-.08-.1-.08-.18,0a5,5,0,0,1-1.5,1.26,4.73,4.73,0,0,1-2.28.49A5.86,5.86,0,0,1,207.54,129.85Z"/><path class="cls-1" d="M227,117.16c.2,0,.29.11.29.32v12.6a.42.42,0,0,1-.11.34.56.56,0,0,1-.37.1h-2.27a.43.43,0,0,1-.31-.09.4.4,0,0,1-.09-.29V117.5c0-.23.1-.34.29-.34Z"/><path class="cls-1" d="M234.51,117.48a.33.33,0,0,1,.1-.23.4.4,0,0,1,.27-.09h10.33c.24,0,.36.11.36.32v1.68q0,.27-.33.27h-3.36c-.13,0-.2.06-.2.18v10.56c0,.23-.1.35-.31.35H238.8c-.18,0-.27-.1-.27-.31V119.66a.3.3,0,0,0-.05-.18.21.21,0,0,0-.15,0h-3.47c-.23,0-.35-.09-.35-.27Z"/><path class="cls-1" d="M252.17,130.21a.43.43,0,0,1,0-.22l4.48-12.47a.79.79,0,0,1,.17-.28.51.51,0,0,1,.3-.08h2.7a.58.58,0,0,1,.34.11.55.55,0,0,1,.2.29L264.84,130a.45.45,0,0,1,0,.16.43.43,0,0,1-.06.24.22.22,0,0,1-.19.09H262a.33.33,0,0,1-.34-.26l-.93-2.62a.45.45,0,0,0-.09-.16.21.21,0,0,0-.15,0h-4.39a.24.24,0,0,0-.24.18l-1,2.66a.38.38,0,0,1-.38.24h-2.07C252.26,130.52,252.17,130.42,252.17,130.21Zm7.56-5.17c.12,0,.18,0,.18-.14a.67.67,0,0,0,0-.16l-1.52-4.21c0-.07-.08-.11-.12-.11s-.07,0-.11.12l-1.53,4.2a.41.41,0,0,0,0,.16c0,.1.07.14.2.14Z"/><path class="cls-1" d="M272.41,117.16H275c.19,0,.29.11.29.32V128a.3.3,0,0,0,0,.18.22.22,0,0,0,.16.05h5.74c.21,0,.32.09.32.27v1.71a.32.32,0,0,1-.09.24.33.33,0,0,1-.25.09h-8.68a.41.41,0,0,1-.3-.09.4.4,0,0,1-.09-.29V117.5C272.12,117.27,272.21,117.16,272.41,117.16Z"/><path class="cls-1" d="M302.32,117.18a7.64,7.64,0,0,1,5.31,1.82,6.4,6.4,0,0,1,1.75,4.78,6.6,6.6,0,0,1-1.82,4.95,7.31,7.31,0,0,1-5.33,1.79h-3.9a.47.47,0,0,1-.32-.1.46.46,0,0,1-.1-.34V117.52a.38.38,0,0,1,.09-.28.48.48,0,0,1,.31-.08Zm-1.26,2.46v8.41a.32.32,0,0,0,.05.2.26.26,0,0,0,.18.05h.35a4.92,4.92,0,0,0,3.53-7.77,4,4,0,0,0-2.85-1.1l-1.1,0C301.12,119.39,301.06,119.48,301.06,119.64Z"/><path class="cls-1" d="M317.12,117.16h9.07c.18,0,.27.1.27.31l0,1.62a.33.33,0,0,1-.38.37h-5.74c-.23,0-.34.1-.34.29v2.61c0,.21.09.31.27.31h3.81c.21,0,.31.09.31.29v1.72c0,.17-.1.26-.29.26h-3.85c-.17,0-.25.07-.25.21V128a.3.3,0,0,0,0,.18.22.22,0,0,0,.16.05h6.15q.33,0,.33.27v1.71q0,.33-.36.33h-9.08a.41.41,0,0,1-.3-.09.4.4,0,0,1-.09-.29V117.5C316.83,117.27,316.92,117.16,317.12,117.16Z"/><path class="cls-1" d="M340.6,119.49a3.56,3.56,0,0,0-1.58-.3,3,3,0,0,0-1.67.4,1.2,1.2,0,0,0-.58,1c0,.63.49,1.08,1.46,1.37l2.84.81a4.57,4.57,0,0,1,2.39,1.42,4,4,0,0,1,.13,4.53,4.06,4.06,0,0,1-1.86,1.43,7.33,7.33,0,0,1-2.85.51,8.49,8.49,0,0,1-3.31-.62,4.57,4.57,0,0,1-2.16-1.7.52.52,0,0,1-.08-.24.44.44,0,0,1,.18-.31l1.39-1a.68.68,0,0,1,.32-.11.32.32,0,0,1,.27.15,4.52,4.52,0,0,0,1.35,1.22,4,4,0,0,0,1.82.36,3.81,3.81,0,0,0,1.89-.38,1.22,1.22,0,0,0,.69-1.13,1.14,1.14,0,0,0-.35-.83,2.66,2.66,0,0,0-1.15-.59l-2.72-.78a4.61,4.61,0,0,1-2.39-1.45,3.53,3.53,0,0,1-.85-2.31,3.57,3.57,0,0,1,.64-2.07,4.4,4.4,0,0,1,1.81-1.45,6.54,6.54,0,0,1,2.7-.53,7.3,7.3,0,0,1,2.77.51,4.53,4.53,0,0,1,1.93,1.38.48.48,0,0,1,.11.25.27.27,0,0,1-.11.2l-1.51,1.12a.47.47,0,0,1-.16.07c-.06,0-.16-.07-.29-.2A3.52,3.52,0,0,0,340.6,119.49Z"/><path class="cls-1" d="M354.45,117.16c.19,0,.29.11.29.32v12.6a.46.46,0,0,1-.11.34.6.6,0,0,1-.38.1H352a.41.41,0,0,1-.3-.09.4.4,0,0,1-.09-.29V117.5c0-.23.09-.34.28-.34Z"/><path class="cls-1" d="M365,129.85a5.58,5.58,0,0,1-2.09-2.38,8.09,8.09,0,0,1-.74-3.58,8.21,8.21,0,0,1,.77-3.65,5.62,5.62,0,0,1,2.18-2.41,6.12,6.12,0,0,1,3.24-.85,6,6,0,0,1,2.56.54,5.27,5.27,0,0,1,1.89,1.41,4,4,0,0,1,.91,1.87.7.7,0,0,1,0,.27c0,.13-.08.2-.23.21l-2.38.36a.27.27,0,0,1-.2-.06.77.77,0,0,1-.09-.23,2.73,2.73,0,0,0-.84-1.54,2.46,2.46,0,0,0-1.73-.62,2.37,2.37,0,0,0-2.11,1.1,6.54,6.54,0,0,0-.72,3.49,6.47,6.47,0,0,0,.76,3.6,2.76,2.76,0,0,0,3.9.52,2.68,2.68,0,0,0,.85-1.47l0-.52a.34.34,0,0,0,0-.11c0-.11-.06-.16-.19-.16h-2.18a.34.34,0,0,1-.22-.07.33.33,0,0,1-.07-.24V124c0-.17.1-.25.29-.25l4.8,0a.57.57,0,0,1,.39.12.38.38,0,0,1,.14.31v6.07a.27.27,0,0,1-.27.27h-.58a.53.53,0,0,1-.47-.29l-.52-1.3c0-.08-.1-.08-.18,0a5,5,0,0,1-1.5,1.26,4.73,4.73,0,0,1-2.28.49A5.86,5.86,0,0,1,365,129.85Z"/><path class="cls-1" d="M392.5,117.16c.16,0,.23.09.23.27v12.8a.26.26,0,0,1-.1.21.36.36,0,0,1-.24.08h-1.82a.82.82,0,0,1-.25,0,.51.51,0,0,1-.2-.18l-5.74-8.06c-.05-.06-.09-.09-.13-.07a.09.09,0,0,0-.07.1v8a.22.22,0,0,1-.08.2.39.39,0,0,1-.28.07H382c-.24,0-.36-.1-.36-.31V117.5c0-.23.11-.34.33-.34h2.17a.73.73,0,0,1,.31,0,.74.74,0,0,1,.22.22l5.29,7.54q.1.15.18.15c.06,0,.09-.07.09-.2v-7.44a.29.29,0,0,1,.32-.32Z"/><path d="M431.94,124.38H406.21v-1h25.73a.2.2,0,0,0,.2-.2v-41h1v41A1.2,1.2,0,0,1,431.94,124.38Z"/><circle cx="406.4" cy="123.88" r="3.76"/><path class="cls-1" d="M357.8,187.86a.74.74,0,0,1,0,.18l-3.67,12.42a.65.65,0,0,1-.2.29.59.59,0,0,1-.34.09h-1.95a.52.52,0,0,1-.56-.38l-2.26-7.87q0-.18-.09-.18s-.07.07-.13.22l-2.29,7.83a.46.46,0,0,1-.18.29.6.6,0,0,1-.36.09h-2a.6.6,0,0,1-.36-.09.58.58,0,0,1-.2-.29L339.53,188a.44.44,0,0,1,0-.18c0-.25.15-.38.45-.38h2.25a.56.56,0,0,1,.32.07.42.42,0,0,1,.15.24L345,196c0,.14.07.21.11.21s.07-.05.1-.16l2.33-8.24c0-.21.19-.31.46-.31h1.93a.54.54,0,0,1,.33.07.48.48,0,0,1,.16.24l2.35,8.31c0,.09.06.13.11.14s.08,0,.09-.12l2.29-8.33c.06-.21.22-.31.49-.31h1.61C357.65,187.48,357.8,187.61,357.8,187.86Z"/><path class="cls-1" d="M365.36,187.48h9.07c.18,0,.27.1.27.31l0,1.62a.33.33,0,0,1-.38.37h-5.74c-.23,0-.34.1-.34.29v2.61c0,.21.09.31.27.31h3.81c.21,0,.31.09.31.29V195c0,.17-.1.26-.29.26h-3.85c-.17,0-.25.07-.25.21v2.83a.3.3,0,0,0,0,.18.22.22,0,0,0,.16.05h6.15q.33,0,.33.27v1.71q0,.33-.36.33h-9.08a.41.41,0,0,1-.3-.09.4.4,0,0,1-.09-.29V187.82C365.07,187.59,365.17,187.48,365.36,187.48Z"/><path class="cls-1" d="M382.33,200.75a.32.32,0,0,1-.09-.24V187.86a.37.37,0,0,1,.1-.28.34.34,0,0,1,.26-.1h4.88a7.59,7.59,0,0,1,4,.89,2.92,2.92,0,0,1,1.4,2.62,2.74,2.74,0,0,1-.54,1.7,4.47,4.47,0,0,1-1.82,1.22.07.07,0,0,0-.06.07.07.07,0,0,0,.06.07,4.6,4.6,0,0,1,2,1.21,2.89,2.89,0,0,1,.64,2,3,3,0,0,1-1.38,2.73,7.78,7.78,0,0,1-4.15.89h-5.13A.33.33,0,0,1,382.33,200.75Zm5.42-7.76a2.39,2.39,0,0,0,1.47-.43,1.39,1.39,0,0,0,.58-1.21,1.52,1.52,0,0,0-.61-1.29,2.64,2.64,0,0,0-1.6-.46h-1.86a.38.38,0,0,0-.26.08.29.29,0,0,0-.08.23v2.75a.54.54,0,0,0,.05.26.28.28,0,0,0,.2.07Zm-.13,5.72a2.81,2.81,0,0,0,1.75-.47,1.61,1.61,0,0,0,.59-1.31,1.52,1.52,0,0,0-.61-1.29,2.64,2.64,0,0,0-1.6-.46h-2a.44.44,0,0,0-.27.07.34.34,0,0,0-.07.24v2.88a.54.54,0,0,0,.05.26.25.25,0,0,0,.2.08Z"/><path d="M431.94,193.3H406.21v-1h25.73a.2.2,0,0,0,.2-.2v-41h1v41A1.2,1.2,0,0,1,431.94,193.3Z"/><path d="M406.4,189a3.76,3.76,0,1,0,3.76,3.76A3.77,3.77,0,0,0,406.4,189Z"/><path d="M430.66,472.85H241.8v-1H430.66a.2.2,0,0,0,.2-.2V227.23h1V471.65A1.2,1.2,0,0,1,430.66,472.85Z"/><circle cx="242.08" cy="472.35" r="5.64"/><path d="M176,37.1a4.71,4.71,0,0,0-2.1-.4,3.93,3.93,0,0,0-2.23.53,1.6,1.6,0,0,0-.77,1.39c0,.83.65,1.44,1.94,1.83l3.79,1.08a6,6,0,0,1,3.18,1.89,4.82,4.82,0,0,1,1.05,3.12,5,5,0,0,1-.87,2.92,5.51,5.51,0,0,1-2.48,1.91,10,10,0,0,1-3.8.67,11.31,11.31,0,0,1-4.42-.83,6.06,6.06,0,0,1-2.88-2.27.66.66,0,0,1-.1-.31.6.6,0,0,1,.24-.41L168.41,47a.8.8,0,0,1,.43-.14.41.41,0,0,1,.36.19,5.79,5.79,0,0,0,1.8,1.63,5.25,5.25,0,0,0,2.43.48,5.34,5.34,0,0,0,2.52-.5,1.63,1.63,0,0,0,.91-1.52,1.47,1.47,0,0,0-.46-1.1,3.72,3.72,0,0,0-1.53-.79l-3.63-1a6.19,6.19,0,0,1-3.19-1.94,4.81,4.81,0,0,1-.27-5.84,5.64,5.64,0,0,1,2.41-1.93,8.66,8.66,0,0,1,3.6-.71,9.81,9.81,0,0,1,3.69.68,6,6,0,0,1,2.57,1.84.58.58,0,0,1,.15.34.34.34,0,0,1-.15.26l-2,1.49a.5.5,0,0,1-.22.09c-.08,0-.21-.08-.38-.26A4.82,4.82,0,0,0,176,37.1Z"/><path d="M204.71,51a7.19,7.19,0,0,1-2.85-3.14,10.83,10.83,0,0,1-1-4.84,11.15,11.15,0,0,1,1-4.91,7.31,7.31,0,0,1,2.87-3.19,8.21,8.21,0,0,1,4.35-1.12,8.13,8.13,0,0,1,4.32,1.12,7.41,7.41,0,0,1,2.86,3.19,11.07,11.07,0,0,1,1,4.88,11,11,0,0,1-1,4.84,7.16,7.16,0,0,1-2.85,3.15A8.27,8.27,0,0,1,209.09,52,8.57,8.57,0,0,1,204.71,51Zm7.27-3.3a9.15,9.15,0,0,0,.9-4.66,9.5,9.5,0,0,0-.92-4.8,3.12,3.12,0,0,0-2.87-1.51,3.17,3.17,0,0,0-2.92,1.51,9.61,9.61,0,0,0-.92,4.8,9,9,0,0,0,.91,4.66,3.22,3.22,0,0,0,2.93,1.44A3.15,3.15,0,0,0,212,47.65Z"/><path d="M238.42,34h11.9c.24,0,.36.14.36.41l0,2.16c0,.33-.16.5-.48.5h-7.49a.5.5,0,0,0-.35.1.37.37,0,0,0-.11.29v3.72c0,.25.12.38.36.38h5.21a.34.34,0,0,1,.39.38v2.28c0,.23-.12.34-.36.34h-5.26c-.22,0-.34.1-.34.31v6.39a.53.53,0,0,1-.14.43.75.75,0,0,1-.48.12h-3.05a.57.57,0,0,1-.41-.12.54.54,0,0,1-.11-.39V34.45C238,34.14,238.16,34,238.42,34Z"/><path d="M270.29,34.42a.39.39,0,0,1,.13-.31.51.51,0,0,1,.35-.12h13.78c.32,0,.48.14.48.43v2.23c0,.24-.15.36-.44.36h-4.48q-.27,0-.27.24V51.34c0,.31-.13.46-.41.46H276c-.24,0-.36-.14-.36-.41V37.33a.35.35,0,0,0-.06-.24.25.25,0,0,0-.2-.08h-4.63c-.31,0-.46-.12-.46-.36Z"/><path d="M329,34.49a.69.69,0,0,1,0,.24l-4.9,16.56a.77.77,0,0,1-.26.39.78.78,0,0,1-.46.12h-2.59a.67.67,0,0,1-.74-.51l-3-10.48q0-.24-.12-.24s-.09.09-.17.28l-3,10.44a.69.69,0,0,1-.24.39.85.85,0,0,1-.48.12h-2.67a.85.85,0,0,1-.48-.12.77.77,0,0,1-.26-.39l-4.9-16.56a1.1,1.1,0,0,1,0-.24c0-.33.2-.5.6-.5h3a.74.74,0,0,1,.43.1.43.43,0,0,1,.19.31L312,45.32c0,.19.1.29.14.29s.1-.08.15-.22l3.09-11c.05-.27.26-.41.63-.41h2.56a.75.75,0,0,1,.45.1.51.51,0,0,1,.2.31l3.15,11.09c0,.11.08.17.14.18s.1-.05.12-.16l3.05-11.11a.6.6,0,0,1,.65-.41h2.16C328.85,34,329,34.16,329,34.49Z"/><path d="M346,51.39a.72.72,0,0,1,.05-.29l6-16.63a.84.84,0,0,1,.22-.37.64.64,0,0,1,.4-.11h3.6a.78.78,0,0,1,.46.14.82.82,0,0,1,.26.39l5.93,16.63a.91.91,0,0,1,.05.22.52.52,0,0,1-.09.31.28.28,0,0,1-.25.12H359a.42.42,0,0,1-.45-.34L357.34,48a.51.51,0,0,0-.11-.21.28.28,0,0,0-.2-.06h-5.86a.3.3,0,0,0-.31.24l-1.27,3.56a.53.53,0,0,1-.51.31h-2.76C346.08,51.8,346,51.66,346,51.39ZM356,44.5c.16,0,.24-.06.24-.19a1.09,1.09,0,0,0,0-.22l-2-5.61c-.05-.1-.1-.15-.17-.15s-.09.06-.14.17l-2,5.59a.91.91,0,0,0-.05.22c0,.13.09.19.27.19Z"/><path d="M397.85,51.37a.43.43,0,0,1-.12.31.4.4,0,0,1-.29.12h-3.52a.52.52,0,0,1-.53-.43l-2.6-6.72a.45.45,0,0,0-.21-.27,1.08,1.08,0,0,0-.46-.07h-2.28a.27.27,0,0,0-.21.08.29.29,0,0,0-.08.18v6.65a.58.58,0,0,1-.15.45.82.82,0,0,1-.49.13h-3.05a.42.42,0,0,1-.51-.48V34.45c0-.31.13-.46.39-.46h7.49a8.47,8.47,0,0,1,5,1.27A4.19,4.19,0,0,1,398,38.89a4.76,4.76,0,0,1-.94,3,4.92,4.92,0,0,1-2.35,1.74c-.13,0-.16.17-.1.36l3.17,7.18A.91.91,0,0,1,397.85,51.37ZM393,40.89a2.08,2.08,0,0,0,.72-1.72,2.17,2.17,0,0,0-.73-1.76,3,3,0,0,0-2-.61H388a.59.59,0,0,0-.36.08.41.41,0,0,0-.1.3v3.89a.5.5,0,0,0,.08.31c0,.07.13.1.26.1h2.95A3.28,3.28,0,0,0,393,40.89Z"/><path d="M419.07,34h12.09c.24,0,.36.14.36.41l0,2.16a.45.45,0,0,1-.51.5h-7.65c-.31,0-.46.13-.46.39v3.48c0,.27.12.4.36.4h5.09c.27,0,.41.13.41.39V44c0,.23-.13.34-.39.34h-5.13c-.23,0-.34.09-.34.29v3.76a.35.35,0,0,0,.06.24.26.26,0,0,0,.21.08h8.2c.29,0,.44.12.44.36v2.28c0,.28-.16.43-.48.43h-12.1a.57.57,0,0,1-.41-.12.54.54,0,0,1-.12-.39V34.45C418.68,34.14,418.81,34,419.07,34Z"/><path d="M473.61,505.38H323.26v-5H471.81V5H5V164.32H0V3.2A3.21,3.21,0,0,1,3.2,0H473.61a3.2,3.2,0,0,1,3.2,3.2v499A3.2,3.2,0,0,1,473.61,505.38Z"/></g></g></svg>