<svg class="data-service-logo-2" id="serviceHow" xmlns="http://www.w3.org/2000/svg" viewBox="0 0 405 405">
  <defs>
    <style>
      .cls-1 {
        fill: #fff;
      }
      .cls-2 {
        fill: none;
        stroke: #fff;
        stroke-miterlimit: 10;
        stroke-width: 5px;
      }
    </style>
  </defs>
  <title>Service_how</title>
  <g id="Layer_2" data-name="Layer 2">
    <g id="Layer_11" data-name="Layer 11"><path
      class="cls-1"
      d="M45.76,136.4A1.38,1.38,0,0,0,44.2,138v91.26c0,1.56-.87,2.34-2.6,2.34h-7c-1.56,0-2.34-.87-2.34-2.6V41.24a3,3,0,0,1,.52-2.08,2.52,2.52,0,0,1,1.82-.52h7.28a2.52,2.52,0,0,1,1.82.52,3,3,0,0,1,.52,2.08v82.42c0,1,.17,1.69.52,2a3.15,3.15,0,0,0,1.82.39H147.42a1.84,1.84,0,0,0,2.08-2.08V41c0-1.56.69-2.34,2.08-2.34h7.54a2.52,2.52,0,0,1,1.82.52,3,3,0,0,1,.52,2.08V229c0,1.73-.78,2.6-2.34,2.6h-7c-1.73,0-2.6-.78-2.6-2.34v-91a1.61,1.61,0,0,0-1.82-1.82Z"/><path class="cls-2" d="M402.5,131.86V3.2a.7.7,0,0,0-.7-.7H3.2a.7.7,0,0,0-.7.7V401.8a.7.7,0,0,0,.7.7H130.56"/><path
      class="cls-1"
      d="M154.91,262.1a.26.26,0,0,0-.23.1.29.29,0,0,0-.09.21v6.75a.54.54,0,0,1-.15.42.75.75,0,0,1-.49.13h-3a.57.57,0,0,1-.41-.12.52.52,0,0,1-.12-.38V252.36c0-.31.13-.46.39-.46h3.43c.26,0,.38.15.38.43v6.15c0,.27.12.41.36.41h5.55a.34.34,0,0,0,.38-.39v-6.17c0-.28.12-.43.36-.43h3.43c.28,0,.41.15.41.46v16.85c0,.33-.17.5-.53.5h-3a.73.73,0,0,1-.48-.12.52.52,0,0,1-.15-.43v-6.75a.31.31,0,0,0-.08-.22.33.33,0,0,0-.25-.09Z"/><path
      class="cls-1"
      d="M183.67,268.86a7.24,7.24,0,0,1-2.86-3.13,12.41,12.41,0,0,1,0-9.76,7.34,7.34,0,0,1,2.86-3.19,8.27,8.27,0,0,1,4.36-1.12,8.13,8.13,0,0,1,4.32,1.12,7.47,7.47,0,0,1,2.86,3.19,12.37,12.37,0,0,1,0,9.72,7.3,7.3,0,0,1-2.85,3.16,8.36,8.36,0,0,1-4.34,1.1A8.47,8.47,0,0,1,183.67,268.86Zm7.27-3.3a9.12,9.12,0,0,0,.9-4.66,9.61,9.61,0,0,0-.92-4.8,3.12,3.12,0,0,0-2.87-1.51,3.17,3.17,0,0,0-2.92,1.51,9.61,9.61,0,0,0-.92,4.8,9,9,0,0,0,.91,4.66,3.22,3.22,0,0,0,2.93,1.44A3.15,3.15,0,0,0,190.94,265.56Z"/><path
      class="cls-1"
      d="M233.36,252.41a1.25,1.25,0,0,1,0,.24l-4.9,16.56a.67.67,0,0,1-.72.5h-2.59a.7.7,0,0,1-.75-.5l-3-10.49q0-.24-.12-.24s-.09.09-.17.29l-3,10.44a.7.7,0,0,1-.24.38.87.87,0,0,1-.49.12h-2.66a.81.81,0,0,1-.48-.12.78.78,0,0,1-.26-.38L209,252.65a1.25,1.25,0,0,1,0-.24q0-.51.6-.51h3a.74.74,0,0,1,.43.1.45.45,0,0,1,.19.31l3.1,10.92c0,.19.09.29.14.29s.1-.07.15-.22l3.09-11c0-.27.26-.41.62-.41h2.57a.75.75,0,0,1,.45.1.6.6,0,0,1,.2.31l3.15,11.09c0,.11.08.17.14.18s.1-.05.12-.16l3-11.11a.59.59,0,0,1,.65-.41h2.16Q233.36,251.9,233.36,252.41Z"/></g>
  </g>
</svg>
