<?xml version="1.0" encoding="utf-8"?>
<svg version="1.1" id="Layer_1" xmlns="http://www.w3.org/2000/svg" xmlns:xlink="http://www.w3.org/1999/xlink" x="0px" y="0px" viewBox="0 0 405 405" enable-background="new 0 0 405 405" xml:space="preserve">
	<g>
		<g>
			<path fill="#FFFFFF" d="M130.6,405H3.2c-1.8,0-3.2-1.4-3.2-3.2V3.2C0,1.4,1.4,0,3.2,0h398.6c1.8,0,3.2,1.4,3.2,3.2v128.7h-5V5H5
			v395h125.6V405z"/>
		</g>
		<g>
			<path
				fill="#FFFFFF"
				d="M129.9,269.3c0-0.1,0-0.2,0-0.3l6-16.6c0.1-0.2,0.1-0.3,0.2-0.4s0.2-0.1,0.4-0.1h3.6c0.2,0,0.3,0,0.5,0.1
			c0.1,0.1,0.2,0.2,0.3,0.4l5.9,16.6c0,0.1,0,0.2,0,0.2c0,0.1,0,0.2-0.1,0.3c-0.1,0.1-0.1,0.1-0.3,0.1H143c-0.2,0-0.4-0.1-0.5-0.3
			l-1.2-3.5c0-0.1-0.1-0.2-0.1-0.2c0,0-0.1-0.1-0.2-0.1h-5.9c-0.2,0-0.3,0.1-0.3,0.2l-1.3,3.6c-0.1,0.2-0.3,0.3-0.5,0.3h-2.8
			C130,269.7,129.9,269.6,129.9,269.3z M140,262.4c0.2,0,0.2-0.1,0.2-0.2c0-0.1,0-0.2,0-0.2l-2-5.6c0-0.1-0.1-0.1-0.2-0.1
			c0,0-0.1,0.1-0.1,0.2l-2,5.6c0,0.1,0,0.2,0,0.2c0,0.1,0.1,0.2,0.3,0.2H140z"/>
			<path
				fill="#FFFFFF"
				d="M161.7,251.9h3.4c0.3,0,0.4,0.1,0.4,0.4v14c0,0.1,0,0.2,0.1,0.2c0,0,0.1,0.1,0.2,0.1h7.7
			c0.3,0,0.4,0.1,0.4,0.4v2.3c0,0.1,0,0.2-0.1,0.3s-0.2,0.1-0.3,0.1h-11.6c-0.2,0-0.3,0-0.4-0.1s-0.1-0.2-0.1-0.4v-16.8
			C161.3,252.1,161.4,251.9,161.7,251.9z"/>
			<path
				fill="#FFFFFF"
				d="M188.7,251.9h3.4c0.3,0,0.4,0.1,0.4,0.4v14c0,0.1,0,0.2,0.1,0.2c0,0,0.1,0.1,0.2,0.1h7.7
			c0.3,0,0.4,0.1,0.4,0.4v2.3c0,0.1,0,0.2-0.1,0.3s-0.2,0.1-0.3,0.1h-11.6c-0.2,0-0.3,0-0.4-0.1s-0.1-0.2-0.1-0.4v-16.8
			C188.3,252.1,188.5,251.9,188.7,251.9z"/>
			<path fill="#FFFFFF" d="M236.1,251.9c0.3,0,0.4,0.1,0.4,0.4v16.8c0,0.2,0,0.4-0.1,0.4s-0.3,0.1-0.5,0.1h-3c-0.2,0-0.3,0-0.4-0.1
			s-0.1-0.2-0.1-0.4v-16.8c0-0.3,0.1-0.5,0.4-0.5H236.1z"/>
			<path
				fill="#FFFFFF"
				d="M266.4,251.9c0.2,0,0.3,0.1,0.3,0.4v17.1c0,0.1,0,0.2-0.1,0.3s-0.2,0.1-0.3,0.1h-2.4c-0.1,0-0.3,0-0.3,0
			s-0.2-0.1-0.3-0.2l-7.7-10.8c-0.1-0.1-0.1-0.1-0.2-0.1c-0.1,0-0.1,0.1-0.1,0.1v10.6v0.1c0,0.1,0,0.2-0.1,0.3s-0.2,0.1-0.4,0.1
			h-2.5c-0.3,0-0.5-0.1-0.5-0.4v-16.9c0-0.3,0.1-0.5,0.4-0.5h2.9c0.2,0,0.3,0,0.4,0.1s0.2,0.1,0.3,0.3l7.1,10.1
			c0.1,0.1,0.2,0.2,0.2,0.2c0.1,0,0.1-0.1,0.1-0.3v-9.9c0-0.3,0.1-0.4,0.4-0.4H266.4z"/>
			<path
				fill="#FFFFFF"
				d="M302.3,268.9c-1.2-0.7-2.2-1.8-2.9-3.1c-0.7-1.4-1-3-1-4.8c0-1.9,0.3-3.5,1-4.9s1.6-2.4,2.9-3.2
			c1.2-0.7,2.7-1.1,4.4-1.1c1.6,0,3.1,0.4,4.3,1.1c1.2,0.7,2.2,1.8,2.9,3.2s1,3,1,4.9c0,1.9-0.3,3.5-1,4.8c-0.7,1.4-1.6,2.4-2.8,3.2
			c-1.2,0.7-2.7,1.1-4.3,1.1C305,270,303.5,269.6,302.3,268.9z M309.6,265.6c0.6-1,0.9-2.5,0.9-4.7c0-2.2-0.3-3.8-0.9-4.8
			c-0.6-1-1.6-1.5-2.9-1.5c-1.3,0-2.3,0.5-2.9,1.5c-0.6,1-0.9,2.6-0.9,4.8c0,2.1,0.3,3.7,0.9,4.7c0.6,1,1.6,1.4,2.9,1.4
			C308,267,309,266.5,309.6,265.6z"/>
			<path
				fill="#FFFFFF"
				d="M344.2,251.9c0.2,0,0.3,0.1,0.3,0.4v17.1c0,0.1,0,0.2-0.1,0.3s-0.2,0.1-0.3,0.1h-2.4c-0.1,0-0.3,0-0.3,0
			s-0.2-0.1-0.3-0.2l-7.7-10.8c-0.1-0.1-0.1-0.1-0.2-0.1c-0.1,0-0.1,0.1-0.1,0.1v10.6v0.1c0,0.1,0,0.2-0.1,0.3s-0.2,0.1-0.4,0.1
			h-2.5c-0.3,0-0.5-0.1-0.5-0.4v-16.9c0-0.3,0.1-0.5,0.4-0.5h2.9c0.2,0,0.3,0,0.4,0.1s0.2,0.1,0.3,0.3l7.1,10.1
			c0.1,0.1,0.2,0.2,0.2,0.2c0.1,0,0.1-0.1,0.1-0.3v-9.9c0-0.3,0.1-0.4,0.4-0.4H344.2z"/>
			<path
				fill="#FFFFFF"
				d="M360.2,251.9h12.1c0.2,0,0.4,0.1,0.4,0.4l0,2.2c0,0.3-0.2,0.5-0.5,0.5h-7.7c-0.3,0-0.5,0.1-0.5,0.4v3.5
			c0,0.3,0.1,0.4,0.4,0.4h5.1c0.3,0,0.4,0.1,0.4,0.4v2.3c0,0.2-0.1,0.3-0.4,0.3h-5.1c-0.2,0-0.3,0.1-0.3,0.3v3.8
			c0,0.1,0,0.2,0.1,0.2c0,0,0.1,0.1,0.2,0.1h8.2c0.3,0,0.4,0.1,0.4,0.4v2.3c0,0.3-0.2,0.4-0.5,0.4h-12.1c-0.2,0-0.3,0-0.4-0.1
			s-0.1-0.2-0.1-0.4v-16.8C359.8,252.1,360,251.9,360.2,251.9z"/>
		</g>
		<g>
			<path
				fill="#FFFFFF"
				d="M31.3,229.2l68.9-187.7c0.3-1,0.8-1.8,1.4-2.2c0.6-0.4,1.5-0.7,2.7-0.7h8.6c2.6,0,4.2,0.9,4.7,2.6
			L185.7,229l0.3,0.8c0,1.2-0.8,1.8-2.3,1.8h-6.2c-1.7,0-2.9-0.7-3.4-2.1l-21.1-58c-0.5-1.2-1.4-1.8-2.6-1.8H66.6
			c-1.2,0-2.1,0.6-2.6,1.8l-21.6,58.2c-0.2,1.2-1.1,1.8-2.9,1.8h-6.5C31.4,231.6,30.8,230.8,31.3,229.2z M145.9,159.3
			c1.7,0,2.3-0.9,1.8-2.6L110.6,55.3c-0.5-1.7-1.1-2.6-1.8-2.6c-0.5,0-1.2,1-2.1,2.9L69,157.2c-0.3,0.9-0.4,1.4-0.3,1.7
			c0.2,0.3,0.7,0.4,1.6,0.4H145.9z"/>
		</g>
	</g>
</svg>
