<svg class="data-service-logo-5" id="serviceTricky" xmlns="http://www.w3.org/2000/svg" viewBox="0 0 405 405">
  <defs>
    <style>
      .cls-1 {
        fill: #fff;
      }
      .cls-2 {
        fill: none;
        stroke: #fff;
        stroke-miterlimit: 10;
        stroke-width: 5px;
      }
    </style>
  </defs>
  <title>Service_tricky</title>
  <g id="Layer_2" data-name="Layer 2">
    <g id="Layer_11" data-name="Layer 11"><path
      class="cls-1"
      d="M31.35,40.46a1.61,1.61,0,0,1,1.82-1.82h133.9a1.61,1.61,0,0,1,1.82,1.82v6.76a2,2,0,0,1-.39,1.43,2.53,2.53,0,0,1-1.69.39H111.43a3.76,3.76,0,0,0-2.08.39c-.35.26-.52.91-.52,2V229a3,3,0,0,1-.52,2.08,2.54,2.54,0,0,1-1.82.52h-7a2.08,2.08,0,0,1-2.6-2.6V51.38c0-1-.18-1.69-.52-2A3.79,3.79,0,0,0,94.27,49H33.43a2.51,2.51,0,0,1-1.69-.39,2,2,0,0,1-.39-1.43Z"/><path class="cls-2" d="M402.5,131.86V3.2a.7.7,0,0,0-.7-.7H3.2a.7.7,0,0,0-.7.7V401.8a.7.7,0,0,0,.7.7H130.56"/><path
      class="cls-1"
      d="M181.9,252.33A.4.4,0,0,1,182,252a.5.5,0,0,1,.35-.12h13.77c.32,0,.48.15.48.43v2.24c0,.24-.14.36-.43.36h-4.49c-.17,0-.26.08-.26.24v14.08c0,.31-.14.46-.41.46h-3.43c-.24,0-.36-.14-.36-.41V255.24a.38.38,0,0,0-.06-.24.25.25,0,0,0-.21-.07h-4.63q-.45,0-.45-.36Z"/><path
      class="cls-1"
      d="M231.62,269.28a.41.41,0,0,1-.12.31.38.38,0,0,1-.29.12h-3.52a.51.51,0,0,1-.53-.43l-2.59-6.72a.47.47,0,0,0-.22-.27,1.24,1.24,0,0,0-.45-.07h-2.28a.27.27,0,0,0-.22.09.24.24,0,0,0-.07.18v6.64a.55.55,0,0,1-.16.45.74.74,0,0,1-.49.13h-3.05a.5.5,0,0,1-.39-.12.49.49,0,0,1-.11-.36V252.36c0-.31.12-.46.38-.46H225a8.6,8.6,0,0,1,5,1.27,4.21,4.21,0,0,1,1.77,3.63,4.84,4.84,0,0,1-.93,3,5.08,5.08,0,0,1-2.36,1.74c-.12,0-.16.16-.09.36l3.17,7.17A.79.79,0,0,1,231.62,269.28Zm-4.89-10.48a2.07,2.07,0,0,0,.72-1.71,2.18,2.18,0,0,0-.74-1.77,2.94,2.94,0,0,0-2-.61h-3a.64.64,0,0,0-.36.08.41.41,0,0,0-.09.3V259a.49.49,0,0,0,.07.31.3.3,0,0,0,.26.1h3A3.29,3.29,0,0,0,226.73,258.8Z"/><path class="cls-1" d="M256.27,251.9c.26,0,.39.15.39.43v16.8a.58.58,0,0,1-.15.45.71.71,0,0,1-.5.13h-3a.55.55,0,0,1-.4-.12.52.52,0,0,1-.12-.38V252.36c0-.31.12-.46.38-.46Z"/><path
      class="cls-1"
      d="M288.86,252.36a6.82,6.82,0,0,1,2.53,1.89,5.72,5.72,0,0,1,1.27,2.69,1.51,1.51,0,0,1,0,.39.21.21,0,0,1-.07.19.73.73,0,0,1-.21.07l-3.25.22a.35.35,0,0,1-.27-.08.63.63,0,0,1-.11-.28,4,4,0,0,0-1.05-2.09,2.94,2.94,0,0,0-2.12-.77q-3.84,0-3.84,6.14a8.74,8.74,0,0,0,1,4.66,3.25,3.25,0,0,0,2.93,1.46,4.07,4.07,0,0,0,2.44-.72,5.05,5.05,0,0,0,1.62-2.35.31.31,0,0,1,.31-.17.55.55,0,0,1,.21,0l2.36.5c.22.08.31.28.26.6a6.21,6.21,0,0,1-1.12,2.23,7.44,7.44,0,0,1-2.46,2.09,7.64,7.64,0,0,1-3.79.89,7.88,7.88,0,0,1-4.3-1.16,7.52,7.52,0,0,1-2.82-3.27,11.28,11.28,0,0,1-1-4.86,10.81,10.81,0,0,1,1-4.77,7.12,7.12,0,0,1,2.82-3.14,8.3,8.3,0,0,1,4.3-1.09A7.93,7.93,0,0,1,288.86,252.36Z"/><path
      class="cls-1"
      d="M328.85,269.42c0,.19-.12.29-.34.29h-3.6a.72.72,0,0,1-.7-.38l-3.86-7.54c-.05-.1-.1-.14-.17-.14s-.16.08-.29.24l-2.13,2.54a.73.73,0,0,0-.15.5v4.23a.54.54,0,0,1-.15.42.75.75,0,0,1-.49.13h-3a.63.63,0,0,1-.41-.11.47.47,0,0,1-.12-.37V252.36c0-.31.13-.46.39-.46h3.45c.24,0,.36.14.36.41v7.18c0,.16,0,.24.1.24s.11-.05.19-.15l5.81-7.29a.79.79,0,0,1,.31-.3,1.11,1.11,0,0,1,.51-.09h2.85a.54.54,0,0,1,.35.1.25.25,0,0,1,.13.21.32.32,0,0,1-.09.24l-4.61,5.4a.67.67,0,0,0-.12.29.84.84,0,0,0,.07.29l5.66,10.7A.67.67,0,0,1,328.85,269.42Z"/><path
      class="cls-1"
      d="M364.49,252.14a.52.52,0,0,1-.08.24l-5.64,9.24a1,1,0,0,0-.16.42,7.47,7.47,0,0,0,0,.85v6.24c0,.39-.22.58-.67.58h-3a.57.57,0,0,1-.41-.12.52.52,0,0,1-.12-.38v-6.46a1.25,1.25,0,0,0-.06-.44,2.39,2.39,0,0,0-.23-.45l-5.68-9.41a.61.61,0,0,1-.1-.26.23.23,0,0,1,.12-.2.55.55,0,0,1,.34-.09h3.6a.83.83,0,0,1,.43.09.75.75,0,0,1,.26.34l3.55,6.24q.15.27.24.27c.08,0,.16-.07.22-.22l3.5-6.29a.93.93,0,0,1,.28-.34.77.77,0,0,1,.42-.09h2.88C364.37,251.9,364.49,252,364.49,252.14Z"/></g>
  </g>
</svg>
