<svg class="data-service-logo-7" id="serviceVAN" xmlns="http://www.w3.org/2000/svg" viewBox="0 0 405 405">
  <defs>
    <style>
      .cls-1 {
        fill: none;
        stroke: #fff;
        stroke-miterlimit: 10;
        stroke-width: 5px;
      }
      .cls-2 {
        fill: #fff;
      }
    </style>
  </defs>
  <g id="Layer_2" data-name="Layer 2">
    <g id="Text"><rect class="cls-1" x="2.5" y="2.5" width="400" height="400" rx="0.7" ry="0.7"/><path
      class="cls-2"
      d="M54.06,38.93a.58.58,0,0,1,0,.56L45.7,63.86a1,1,0,0,1-1.08.73H40.25a1.07,1.07,0,0,1-1.11-.73L30.83,39.53l-.07-.28a.51.51,0,0,1,.17-.4.65.65,0,0,1,.46-.16h5a.73.73,0,0,1,.74.59L42.87,57q0,.24.18.24c.09,0,.17-.09.24-.28l5.55-17.63a.74.74,0,0,1,.77-.59h3.94A.55.55,0,0,1,54.06,38.93Z"/><path
      class="cls-2"
      d="M79.14,64a.91.91,0,0,1,.07-.42L87.9,39.39a1.22,1.22,0,0,1,.34-.54.83.83,0,0,1,.57-.16h5.24a1.08,1.08,0,0,1,.66.21,1,1,0,0,1,.38.56l8.63,24.19a1.38,1.38,0,0,1,.07.31.81.81,0,0,1-.12.46.45.45,0,0,1-.37.17H98.17a.63.63,0,0,1-.67-.49L95.69,59a.82.82,0,0,0-.16-.3.41.41,0,0,0-.3-.09H86.72a.44.44,0,0,0-.46.35l-1.85,5.17a.74.74,0,0,1-.73.45h-4C79.32,64.59,79.14,64.39,79.14,64ZM93.8,54c.24,0,.35-.09.35-.28a1.19,1.19,0,0,0,0-.31l-2.94-8.17c-.06-.14-.15-.21-.24-.21s-.14.08-.21.24l-3,8.14a1.38,1.38,0,0,0-.07.31c0,.19.13.28.39.28Z"/><path
      class="cls-2"
      d="M154.61,64a.58.58,0,0,1-.59.63h-5.13a.75.75,0,0,1-.77-.63l-3.77-9.77a.66.66,0,0,0-.31-.39,1.77,1.77,0,0,0-.67-.1h-3.31a.41.41,0,0,0-.32.12.39.39,0,0,0-.1.26v9.67a.81.81,0,0,1-.23.65,1.08,1.08,0,0,1-.71.19h-4.44a.76.76,0,0,1-.57-.17.75.75,0,0,1-.16-.53V39.35c0-.44.19-.66.56-.66H145q4.71,0,7.3,1.85a6.09,6.09,0,0,1,2.58,5.27,7,7,0,0,1-1.36,4.35,7.3,7.3,0,0,1-3.42,2.53c-.19.07-.24.24-.14.52l4.6,10.44A1,1,0,0,1,154.61,64Zm-7.12-15.23a3,3,0,0,0,1-2.5,3.17,3.17,0,0,0-1.06-2.57,4.37,4.37,0,0,0-2.88-.89h-4.3a.76.76,0,0,0-.52.13.52.52,0,0,0-.14.43V49a.75.75,0,0,0,.1.45.47.47,0,0,0,.39.14h4.29A4.76,4.76,0,0,0,147.49,48.73Z"/><path
      class="cls-2"
      d="M197.71,43.21a7,7,0,0,0-3.05-.58,5.74,5.74,0,0,0-3.25.77,2.35,2.35,0,0,0-1.12,2c0,1.21.94,2.09,2.83,2.65l5.51,1.57a8.72,8.72,0,0,1,4.63,2.76A7,7,0,0,1,204.78,57a7.2,7.2,0,0,1-1.26,4.24A8,8,0,0,1,199.91,64a14.41,14.41,0,0,1-5.53,1,16.49,16.49,0,0,1-6.43-1.2,8.9,8.9,0,0,1-4.19-3.3,1,1,0,0,1-.14-.46.87.87,0,0,1,.35-.59l2.69-1.85a1.24,1.24,0,0,1,.63-.21.62.62,0,0,1,.52.28A8.3,8.3,0,0,0,190.43,60a9.4,9.4,0,0,0,7.19,0,2.36,2.36,0,0,0,1.33-2.2,2.21,2.21,0,0,0-.66-1.61A5.64,5.64,0,0,0,196.05,55l-5.27-1.5a8.93,8.93,0,0,1-4.64-2.81,7,7,0,0,1-.4-8.5,8.31,8.31,0,0,1,3.5-2.81,12.53,12.53,0,0,1,5.24-1,14.19,14.19,0,0,1,5.38,1A8.75,8.75,0,0,1,203.59,42a.82.82,0,0,1,.21.48.51.51,0,0,1-.21.39L200.66,45a.59.59,0,0,1-.32.14c-.11,0-.3-.13-.55-.38A6.75,6.75,0,0,0,197.71,43.21Z"/><path
      class="cls-2"
      d="M46.78,85.55a6.61,6.61,0,0,1,2.79,2,4.48,4.48,0,0,1,1,2.9A5.77,5.77,0,0,1,49.14,94a10.82,10.82,0,0,1-3.86,3c-.19.09-.28.19-.28.28a.49.49,0,0,0,.17.31l3.71,4c.14.14.25.21.34.21s.2-.09.39-.28a17.8,17.8,0,0,0,1.66-2.2,12.76,12.76,0,0,0,1.17-2.23.63.63,0,0,1,.56-.35,1,1,0,0,1,.27,0l2.69.88a.59.59,0,0,1,.42.35.66.66,0,0,1,0,.55,25,25,0,0,1-3.84,5.91.69.69,0,0,0-.21.38c0,.09.09.2.28.31a7.12,7.12,0,0,0,2,1,8,8,0,0,0,2.42.43,1.07,1.07,0,0,1,.55.18.64.64,0,0,1,.15.49v3c0,.59-.25.88-.77.88a15.55,15.55,0,0,1-4.53-.65,12.59,12.59,0,0,1-3.77-1.83.93.93,0,0,0-.46-.18,1,1,0,0,0-.49.21,12.44,12.44,0,0,1-3.73,2,14.39,14.39,0,0,1-4.44.64,9.79,9.79,0,0,1-6.3-1.81A6.18,6.18,0,0,1,31,104.4a6,6,0,0,1,1.38-3.82,15,15,0,0,1,4.45-3.44c.23-.14.35-.27.35-.39a.87.87,0,0,0-.28-.48,9.14,9.14,0,0,1-1.62-2.45,6.13,6.13,0,0,1-.58-2.55,5.5,5.5,0,0,1,1-3.28,7.14,7.14,0,0,1,2.88-2.3,9.73,9.73,0,0,1,4.1-.84A11,11,0,0,1,46.78,85.55Zm-7,14.31a.9.9,0,0,0-.41.14,5.27,5.27,0,0,0-1.92,1.68,3.64,3.64,0,0,0-.7,2.13,3.22,3.22,0,0,0,1.13,2.49,4,4,0,0,0,2.78,1,6,6,0,0,0,2.07-.4,5.89,5.89,0,0,0,1.84-1,.78.78,0,0,0,.28-.49.52.52,0,0,0-.18-.38l-4.36-4.89A.7.7,0,0,0,39.83,99.86Zm1-11A2.57,2.57,0,0,0,40,90.79a3.23,3.23,0,0,0,1,2.12l1.15,1.37a.53.53,0,0,0,.32.1,1.14,1.14,0,0,0,.38-.07q3-1.47,3-3.66a2.3,2.3,0,0,0-.8-1.87A3.08,3.08,0,0,0,43,88.1,2.84,2.84,0,0,0,40.85,88.9Z"/><path
      class="cls-2"
      d="M53.24,131.78c.3,0,.45.17.45.52v24.82a.5.5,0,0,1-.19.41.73.73,0,0,1-.47.15H49.5a1.22,1.22,0,0,1-.48-.07.93.93,0,0,1-.39-.35L37.5,141.62c-.1-.11-.19-.16-.27-.14a.2.2,0,0,0-.12.21v15.47a.46.46,0,0,1-.16.4.89.89,0,0,1-.54.12H32.78c-.46,0-.7-.19-.7-.59V132.44q0-.66.63-.66h4.23a1.39,1.39,0,0,1,.59.09,1.31,1.31,0,0,1,.42.43l10.26,14.63c.14.19.26.28.35.28s.18-.13.18-.38V132.41a.55.55,0,0,1,.62-.63Z"/><path
      class="cls-2"
      d="M102.64,155.71Q99.94,158,94.89,158q-5.55,0-8-2.62c-1.63-1.74-2.44-4.4-2.44-8v-15a.81.81,0,0,1,.15-.51.5.5,0,0,1,.41-.19h5c.35,0,.53.21.53.63v15.81a6,6,0,0,0,1.2,4.14,4.64,4.64,0,0,0,3.58,1.31c3.3,0,5-1.85,5-5.55V132.44c0-.44.17-.66.52-.66h4c.35,0,.52.21.52.63v15.67Q105.32,153.39,102.64,155.71Z"/><path
      class="cls-2"
      d="M136.3,157.47a.87.87,0,0,1-.19-.59V132.44q0-.66.6-.66h7.22a1.27,1.27,0,0,1,.56.1.72.72,0,0,1,.28.42L150,146.93c.07.19.15.28.25.28s.17-.09.24-.28l5-14.35c.14-.53.39-.8.77-.8h7.5c.35,0,.52.21.52.63v24.43a.85.85,0,0,1-.21.65,1,1,0,0,1-.66.19H159a.86.86,0,0,1-.58-.15.8.8,0,0,1-.15-.55V139.6c0-.16,0-.24-.11-.24s-.14.09-.21.27l-6.11,17.49a.7.7,0,0,1-.73.56h-2.9a.7.7,0,0,1-.77-.56l-6-17.24c-.07-.19-.14-.28-.21-.28s-.13.1-.13.31v17.14a.5.5,0,0,1-.63.63h-3.56A.71.71,0,0,1,136.3,157.47Z"/><path
      class="cls-2"
      d="M195.6,157.51a.62.62,0,0,1-.18-.46V132.51a.73.73,0,0,1,.2-.54.65.65,0,0,1,.5-.19h9.46c3.42,0,6,.58,7.84,1.73a5.64,5.64,0,0,1,2.7,5.08,5.21,5.21,0,0,1-1,3.3,8.47,8.47,0,0,1-3.53,2.35.14.14,0,0,0-.1.14.13.13,0,0,0,.1.14,8.68,8.68,0,0,1,4,2.36,5.6,5.6,0,0,1,1.24,3.79,5.85,5.85,0,0,1-2.67,5.28c-1.78,1.16-4.46,1.73-8,1.73h-9.95A.68.68,0,0,1,195.6,157.51Zm10.51-15a4.7,4.7,0,0,0,2.84-.82,2.72,2.72,0,0,0,1.14-2.36,2.94,2.94,0,0,0-1.19-2.49,5.08,5.08,0,0,0-3.11-.89H202.2a.76.76,0,0,0-.51.14.58.58,0,0,0-.16.45v5.34a.82.82,0,0,0,.11.49.42.42,0,0,0,.38.14Zm-.25,11.1a5.37,5.37,0,0,0,3.39-.92,3.09,3.09,0,0,0,1.15-2.53,3,3,0,0,0-1.19-2.5,5.07,5.07,0,0,0-3.1-.89H202.2a.84.84,0,0,0-.53.12.63.63,0,0,0-.14.47v5.59a1,1,0,0,0,.11.51.42.42,0,0,0,.38.15Z"/><path
      class="cls-2"
      d="M247.4,131.78H265c.35,0,.52.2.52.59l0,3.15a.65.65,0,0,1-.74.73H253.62c-.45,0-.67.18-.67.56v5.06c0,.39.18.59.53.59h7.4c.39,0,.59.19.59.56v3.35c0,.33-.19.49-.56.49h-7.47c-.32,0-.49.14-.49.42v5.48a.54.54,0,0,0,.09.35.38.38,0,0,0,.3.1h11.94c.42,0,.62.18.62.53v3.31q0,.63-.69.63h-17.6a.83.83,0,0,1-.59-.17.75.75,0,0,1-.18-.56V132.44C246.84,132,247,131.78,247.4,131.78Z"/><path
      class="cls-2"
      d="M316.94,157.05a.65.65,0,0,1-.17.46.61.61,0,0,1-.42.17h-5.13a.74.74,0,0,1-.77-.63l-3.77-9.77a.65.65,0,0,0-.32-.38,1.54,1.54,0,0,0-.66-.11h-3.32a.39.39,0,0,0-.31.12.4.4,0,0,0-.11.26v9.67a.81.81,0,0,1-.22.65,1.09,1.09,0,0,1-.72.19h-4.43a.6.6,0,0,1-.73-.7V132.44c0-.44.18-.66.55-.66h10.9q4.71,0,7.29,1.85a6.1,6.1,0,0,1,2.59,5.27,7,7,0,0,1-1.37,4.35,7.21,7.21,0,0,1-3.42,2.53c-.18.07-.23.24-.14.52l4.61,10.44A1,1,0,0,1,316.94,157.05Zm-7.12-15.23a3,3,0,0,0,1.05-2.5,3.17,3.17,0,0,0-1.07-2.57,4.37,4.37,0,0,0-2.88-.89h-4.29a.85.85,0,0,0-.53.13.55.55,0,0,0-.14.43v5.66a.74.74,0,0,0,.11.45.46.46,0,0,0,.38.14h4.3A4.76,4.76,0,0,0,309.82,141.82Z"/><path
      class="cls-2"
      d="M360,136.3a7,7,0,0,0-3.06-.58,5.76,5.76,0,0,0-3.25.77,2.36,2.36,0,0,0-1.11,2c0,1.21.94,2.09,2.83,2.65l5.51,1.57a8.8,8.8,0,0,1,4.63,2.76A7,7,0,0,1,367.1,150a7.19,7.19,0,0,1-1.25,4.24,8,8,0,0,1-3.61,2.77,14.47,14.47,0,0,1-5.54,1,16.47,16.47,0,0,1-6.42-1.2,8.85,8.85,0,0,1-4.19-3.3,1,1,0,0,1-.14-.46.87.87,0,0,1,.35-.59l2.69-1.85a1.24,1.24,0,0,1,.63-.21.62.62,0,0,1,.52.28,8.2,8.2,0,0,0,2.62,2.37,7.51,7.51,0,0,0,3.52.7A7.66,7.66,0,0,0,360,153a2.38,2.38,0,0,0,1.33-2.2,2.22,2.22,0,0,0-.67-1.61,5.58,5.58,0,0,0-2.23-1.15l-5.27-1.5a9,9,0,0,1-4.65-2.81,6.83,6.83,0,0,1-1.64-4.49,6.92,6.92,0,0,1,1.24-4,8.41,8.41,0,0,1,3.51-2.81,12.5,12.5,0,0,1,5.24-1,14,14,0,0,1,5.37,1,8.69,8.69,0,0,1,3.74,2.67.85.85,0,0,1,.21.48.51.51,0,0,1-.21.39L363,138.13a.62.62,0,0,1-.32.14c-.12,0-.3-.12-.56-.38A6.6,6.6,0,0,0,360,136.3Z"/></g>
  </g>
</svg>
