<svg class="data-service-logo-1" id="serviceWhat" xmlns="http://www.w3.org/2000/svg" viewBox="0 0 405 405">
  <defs>
    <style>
      .cls-1 {
        fill: #fff;
      }
      .cls-2 {
        fill: none;
        stroke: #fff;
        stroke-miterlimit: 10;
        stroke-width: 5px;
      }
    </style>
  </defs>
  <title>Service_what</title>
  <g id="Layer_2" data-name="Layer 2">
    <g id="Layer_11" data-name="Layer 11"><path
      class="cls-1"
      d="M269.06,41,215.24,228.7a4.32,4.32,0,0,1-1.43,2.21,4.66,4.66,0,0,1-2.73.65h-8.32c-2.6,0-4.16-.86-4.68-2.6L151,60.48c-.18-.52-.35-.78-.52-.78s-.35.26-.52.78L101.88,228.7a4.32,4.32,0,0,1-1.43,2.21,4.66,4.66,0,0,1-2.73.65H89.4c-2.6,0-4.16-.86-4.68-2.6L32.2,41.24l-.26-.78c0-1.21.78-1.82,2.34-1.82h6.5a3.79,3.79,0,0,1,2.08.39,4.19,4.19,0,0,1,1,1.69L92,213.1c.52,1.74,1,2.6,1.56,2.6s1-.95,1.56-2.86L144.26,40.46c.34-1.21,1.47-1.82,3.38-1.82h6.5a3.79,3.79,0,0,1,2.08.39,4.19,4.19,0,0,1,1,1.69l48.1,172.38c.52,1.74,1,2.6,1.56,2.6s1-.95,1.56-2.86L257.62,40.46c.17-1.21,1.21-1.82,3.12-1.82h6.5C268.8,38.64,269.4,39.42,269.06,41Z"/><path class="cls-2" d="M402.5,131.86V3.2a.7.7,0,0,0-.7-.7H3.2a.7.7,0,0,0-.7.7V401.8a.7.7,0,0,0,.7.7H130.56"/><path
      class="cls-1"
      d="M225.25,252.41a1.25,1.25,0,0,1,0,.24l-4.9,16.56a.78.78,0,0,1-.26.38.81.81,0,0,1-.46.12H217a.7.7,0,0,1-.75-.5l-3-10.49q0-.24-.12-.24s-.09.09-.17.29l-3.05,10.44a.6.6,0,0,1-.24.38.81.81,0,0,1-.48.12h-2.66a.81.81,0,0,1-.48-.12.78.78,0,0,1-.26-.38l-4.9-16.56a.76.76,0,0,1,0-.24q0-.51.6-.51h3a.74.74,0,0,1,.43.1.49.49,0,0,1,.19.31l3.1,10.92c0,.19.09.29.14.29s.1-.07.14-.22l3.1-11c.05-.27.26-.41.62-.41h2.57a.75.75,0,0,1,.45.1.67.67,0,0,1,.2.31l3.14,11.09c0,.11.08.17.15.18s.1-.05.12-.16l3.05-11.11a.58.58,0,0,1,.64-.41h2.16C225.06,251.9,225.25,252.07,225.25,252.41Z"/><path
      class="cls-1"
      d="M244.26,262.1a.31.31,0,0,0-.31.31v6.75a.54.54,0,0,1-.16.42.74.74,0,0,1-.49.13h-3a.55.55,0,0,1-.4-.12.52.52,0,0,1-.12-.38V252.36c0-.31.12-.46.38-.46h3.43c.26,0,.39.15.39.43v6.15c0,.27.12.41.36.41h5.54c.26,0,.38-.13.38-.39v-6.17c0-.28.12-.43.36-.43H254c.27,0,.4.15.4.46v16.85c0,.33-.17.5-.52.5h-3a.73.73,0,0,1-.48-.12.52.52,0,0,1-.15-.43v-6.75a.27.27,0,0,0-.08-.22.33.33,0,0,0-.25-.09Z"/><path
      class="cls-1"
      d="M268.88,269.3a.72.72,0,0,1,.05-.29l6-16.63a.9.9,0,0,1,.22-.37.64.64,0,0,1,.4-.11h3.6a.73.73,0,0,1,.46.15.74.74,0,0,1,.26.38l5.93,16.63a.91.91,0,0,1,.05.22.5.5,0,0,1-.09.31.28.28,0,0,1-.25.12H282a.42.42,0,0,1-.45-.34l-1.25-3.5a.46.46,0,0,0-.11-.2.28.28,0,0,0-.2-.06h-5.86a.3.3,0,0,0-.31.24l-1.27,3.55a.52.52,0,0,1-.51.31h-2.76C269,269.71,268.88,269.57,268.88,269.3ZM279,262.41c.16,0,.24-.06.24-.19a1,1,0,0,0,0-.21l-2-5.62c-.05-.1-.1-.14-.17-.14s-.09.05-.14.16l-2,5.6a.76.76,0,0,0-.05.21c0,.13.09.19.27.19Z"/><path
      class="cls-1"
      d="M296.63,252.33a.4.4,0,0,1,.13-.31.5.5,0,0,1,.35-.12h13.77c.32,0,.48.15.48.43v2.24c0,.24-.14.36-.43.36h-4.49c-.17,0-.26.08-.26.24v14.08c0,.31-.14.46-.41.46h-3.43c-.24,0-.36-.14-.36-.41V255.24a.38.38,0,0,0-.06-.24.25.25,0,0,0-.21-.07h-4.63q-.45,0-.45-.36Z"/></g>
  </g>
</svg>
