<svg class="data-service-logo-3" id="serviceWho" xmlns="http://www.w3.org/2000/svg" viewBox="0 0 405 405">
  <defs>
    <style>
      .cls-1 {
        fill: #fff;
      }
      .cls-2 {
        fill: none;
        stroke: #fff;
        stroke-miterlimit: 10;
        stroke-width: 5px;
      }
    </style>
  </defs>
  <title>Service_who</title>
  <g id="Layer_2" data-name="Layer 2">
    <g id="Layer_11" data-name="Layer 11"><path
      class="cls-1"
      d="M269.06,41,215.24,228.7a4.32,4.32,0,0,1-1.43,2.21,4.66,4.66,0,0,1-2.73.65h-8.32c-2.6,0-4.16-.86-4.68-2.6L151,60.48c-.18-.52-.35-.78-.52-.78s-.35.26-.52.78L101.88,228.7a4.32,4.32,0,0,1-1.43,2.21,4.66,4.66,0,0,1-2.73.65H89.4c-2.6,0-4.16-.86-4.68-2.6L32.2,41.24l-.26-.78c0-1.21.78-1.82,2.34-1.82h6.5a3.79,3.79,0,0,1,2.08.39,4.19,4.19,0,0,1,1,1.69L92,213.1c.52,1.74,1,2.6,1.56,2.6s1-.95,1.56-2.86L144.26,40.46c.34-1.21,1.47-1.82,3.38-1.82h6.5a3.79,3.79,0,0,1,2.08.39,4.19,4.19,0,0,1,1,1.69l48.1,172.38c.52,1.74,1,2.6,1.56,2.6s1-.95,1.56-2.86L257.62,40.46c.17-1.21,1.21-1.82,3.12-1.82h6.5C268.8,38.64,269.4,39.42,269.06,41Z"/><path class="cls-2" d="M402.5,131.86V3.2a.7.7,0,0,0-.7-.7H3.2a.7.7,0,0,0-.7.7V401.8a.7.7,0,0,0,.7.7H130.56"/><path
      class="cls-1"
      d="M133.68,252.41a1.25,1.25,0,0,1,0,.24l-4.9,16.56a.67.67,0,0,1-.72.5h-2.59a.68.68,0,0,1-.74-.5l-3-10.49q0-.24-.12-.24s-.09.09-.17.29l-3,10.44a.7.7,0,0,1-.24.38.85.85,0,0,1-.48.12H115a.81.81,0,0,1-.48-.12.78.78,0,0,1-.26-.38l-4.9-16.56a1.25,1.25,0,0,1,0-.24q0-.51.6-.51h3a.74.74,0,0,1,.43.1.45.45,0,0,1,.19.31l3.1,10.92c0,.19.09.29.14.29s.1-.07.15-.22l3.09-11c0-.27.26-.41.63-.41h2.56a.75.75,0,0,1,.45.1.6.6,0,0,1,.2.31L127,263.4c0,.11.08.17.14.18s.1-.05.12-.16l3.05-11.11a.59.59,0,0,1,.65-.41h2.16Q133.68,251.9,133.68,252.41Z"/><path
      class="cls-1"
      d="M152.69,262.1a.28.28,0,0,0-.23.1.32.32,0,0,0-.08.21v6.75a.51.51,0,0,1-.16.42.74.74,0,0,1-.49.13h-3a.56.56,0,0,1-.41-.12.52.52,0,0,1-.12-.38V252.36c0-.31.13-.46.38-.46H152c.26,0,.39.15.39.43v6.15c0,.27.12.41.36.41h5.54a.34.34,0,0,0,.39-.39v-6.17c0-.28.12-.43.36-.43h3.43c.27,0,.41.15.41.46v16.85c0,.33-.18.5-.53.5h-3.05a.77.77,0,0,1-.48-.12.52.52,0,0,1-.14-.43v-6.75a.28.28,0,0,0-.09-.22.32.32,0,0,0-.25-.09Z"/><path
      class="cls-1"
      d="M181.45,268.86a7.16,7.16,0,0,1-2.85-3.13,10.88,10.88,0,0,1-1-4.85,11.15,11.15,0,0,1,1-4.91,7.36,7.36,0,0,1,2.87-3.19,8.24,8.24,0,0,1,4.35-1.12,8.13,8.13,0,0,1,4.32,1.12A7.34,7.34,0,0,1,193,256a11.07,11.07,0,0,1,1,4.88,10.89,10.89,0,0,1-1,4.84,7.28,7.28,0,0,1-2.84,3.16,8.37,8.37,0,0,1-4.35,1.1A8.47,8.47,0,0,1,181.45,268.86Zm7.28-3.3a9.12,9.12,0,0,0,.9-4.66,9.48,9.48,0,0,0-.93-4.8,3.11,3.11,0,0,0-2.87-1.51,3.14,3.14,0,0,0-2.91,1.51,9.48,9.48,0,0,0-.93,4.8,9,9,0,0,0,.92,4.66,3.66,3.66,0,0,0,5.82,0Z"/></g>
  </g>
</svg>
