<svg class="data-service-logo-6" id="servicePretty" xmlns="http://www.w3.org/2000/svg" viewBox="0 0 405 405">
  <defs>
    <style>
      .cls-1 {
        fill: #fff;
      }
      .cls-2 {
        fill: none;
        stroke: #fff;
        stroke-miterlimit: 10;
        stroke-width: 5px;
      }
    </style>
  </defs>
  <g id="Layer_2" data-name="Layer 2">
    <g id="Layer_11" data-name="Layer 11"><path
      class="cls-1"
      d="M146.52,133.28q-18.2,13.26-49.4,13.26H49.54c-1.38,0-2.08.78-2.08,2.34v80.34c0,1.56-.69,2.34-2.08,2.34H37.59a1.84,1.84,0,0,1-2.09-2.08V41.24A3,3,0,0,1,36,39.16a2.59,2.59,0,0,1,1.82-.52H95.56q32,0,50.57,13t18.59,40.82Q164.72,120,146.52,133.28Zm-8.84-74.49Q123.13,49,95.3,49H49.8c-1.56,0-2.34.7-2.34,2.08v82.42c0,1.74.61,2.6,1.82,2.6H97.12q26.26,0,40.69-10.66t14.43-33.8Q152.24,68.55,137.68,58.79Z"/><path class="cls-2" d="M402.5,131.86V3.2a.7.7,0,0,0-.7-.7H3.2a.7.7,0,0,0-.7.7V401.8a.7.7,0,0,0,.7.7H130.56"/><path
      class="cls-1"
      d="M195.56,261.47a7.33,7.33,0,0,1-4.71,1.42h-3.6a.24.24,0,0,0-.27.27v6c0,.37-.21.55-.62.55h-3.07a.52.52,0,0,1-.4-.12.53.53,0,0,1-.11-.36V252.36c0-.31.13-.46.39-.46h7.2a9.74,9.74,0,0,1,3.56.62,5.47,5.47,0,0,1,2.5,1.85,5.09,5.09,0,0,1,.92,3.08A4.87,4.87,0,0,1,195.56,261.47Zm-3.32-5.94a3.34,3.34,0,0,0-2.14-.63h-2.66a.54.54,0,0,0-.35.1.44.44,0,0,0-.11.33v4.11a.77.77,0,0,0,.07.35.31.31,0,0,0,.27.1h3a2.9,2.9,0,0,0,2-.67,2.38,2.38,0,0,0,.74-1.85A2.19,2.19,0,0,0,192.24,255.53Z"/><path
      class="cls-1"
      d="M232.44,269.28a.41.41,0,0,1-.12.31.4.4,0,0,1-.29.12H228.5a.51.51,0,0,1-.53-.43l-2.59-6.72a.45.45,0,0,0-.21-.27,1.26,1.26,0,0,0-.46-.07h-2.28a.28.28,0,0,0-.22.09.29.29,0,0,0-.07.18v6.64a.58.58,0,0,1-.15.45.75.75,0,0,1-.49.13h-3.05a.52.52,0,0,1-.4-.12.53.53,0,0,1-.11-.36V252.36c0-.31.13-.46.39-.46h7.48a8.58,8.58,0,0,1,5,1.27,4.21,4.21,0,0,1,1.78,3.63,4.85,4.85,0,0,1-.94,3,5.05,5.05,0,0,1-2.35,1.74c-.13,0-.16.16-.1.36l3.17,7.17A.91.91,0,0,1,232.44,269.28Zm-4.9-10.48a2.07,2.07,0,0,0,.72-1.71,2.17,2.17,0,0,0-.73-1.77,3,3,0,0,0-2-.61h-3a.59.59,0,0,0-.36.08.38.38,0,0,0-.1.3V259a.56.56,0,0,0,.07.31.31.31,0,0,0,.27.1h3A3.28,3.28,0,0,0,227.54,258.8Z"/><path
      class="cls-1"
      d="M253.65,251.9h12.1c.24,0,.36.14.36.41l0,2.16a.44.44,0,0,1-.51.5h-7.65c-.31,0-.46.13-.46.39v3.48c0,.27.12.41.36.41h5.09c.27,0,.41.12.41.38v2.31q0,.33-.39.33h-5.13c-.23,0-.34.1-.34.29v3.77a.38.38,0,0,0,.06.24.28.28,0,0,0,.2.07h8.21c.29,0,.43.12.43.36v2.28c0,.29-.16.43-.48.43H253.8a.57.57,0,0,1-.41-.12.52.52,0,0,1-.12-.38V252.36C253.27,252.05,253.4,251.9,253.65,251.9Z"/><path
      class="cls-1"
      d="M286.08,252.33a.4.4,0,0,1,.13-.31.5.5,0,0,1,.35-.12h13.77c.32,0,.48.15.48.43v2.24c0,.24-.14.36-.43.36h-4.49c-.17,0-.26.08-.26.24v14.08c0,.31-.14.46-.41.46h-3.43c-.24,0-.36-.14-.36-.41V255.24a.38.38,0,0,0-.06-.24.24.24,0,0,0-.2-.07h-4.64q-.45,0-.45-.36Z"/><path
      class="cls-1"
      d="M320.42,252.33a.44.44,0,0,1,.13-.31.51.51,0,0,1,.35-.12h13.78c.32,0,.48.15.48.43v2.24c0,.24-.15.36-.43.36h-4.49q-.27,0-.27.24v14.08c0,.31-.13.46-.4.46h-3.44c-.24,0-.36-.14-.36-.41V255.24a.38.38,0,0,0-.06-.24.23.23,0,0,0-.2-.07h-4.63c-.31,0-.46-.12-.46-.36Z"/><path
      class="cls-1"
      d="M370.87,252.14a.49.49,0,0,1-.07.24l-5.64,9.24a1,1,0,0,0-.17.42,8.41,8.41,0,0,0,0,.85v6.24c0,.39-.23.58-.68.58h-3a.55.55,0,0,1-.4-.12.52.52,0,0,1-.12-.38v-6.46a1.25,1.25,0,0,0-.06-.44,3.21,3.21,0,0,0-.23-.45l-5.69-9.41a.8.8,0,0,1-.1-.26.23.23,0,0,1,.12-.2.57.57,0,0,1,.34-.09h3.6a.81.81,0,0,1,.43.09.7.7,0,0,1,.27.34l3.55,6.24q.13.27.24.27c.08,0,.15-.07.21-.22l3.51-6.29a.93.93,0,0,1,.27-.34.77.77,0,0,1,.42-.09h2.88C370.76,251.9,370.87,252,370.87,252.14Z"/></g>
  </g>
</svg>
