<svg class="data-service-logo-4" id="serviceEverything" xmlns="http://www.w3.org/2000/svg" viewBox="0 0 405 405">
  <defs>
    <style>
      .cls-1 {
        fill: none;
        stroke: #fff;
        stroke-miterlimit: 10;
        stroke-width: 5px;
      }
      .cls-2 {
        fill: #fff;
      }
    </style>
  </defs>
  <g id="Layer_2" data-name="Layer 2">
    <g id="Layer_11" data-name="Layer 11"><path class="cls-1" d="M402.5,131.86V3.2a.7.7,0,0,0-.7-.7H3.2a.7.7,0,0,0-.7.7V401.8a.7.7,0,0,0,.7.7H130.56"/><path
      class="cls-2"
      d="M106.53,251.9h12.1c.24,0,.36.14.36.41l0,2.16a.44.44,0,0,1-.5.5H110.8q-.45,0-.45.39v3.48c0,.27.12.41.36.41h5.08c.28,0,.41.12.41.38v2.3c0,.23-.12.34-.38.34h-5.14c-.22,0-.33.1-.33.29v3.77a.38.38,0,0,0,.06.24.27.27,0,0,0,.2.07h8.21c.29,0,.43.12.43.36v2.28c0,.29-.16.43-.48.43h-12.1a.55.55,0,0,1-.4-.12.52.52,0,0,1-.12-.38V252.36C106.15,252.05,106.28,251.9,106.53,251.9Z"/><path
      class="cls-2"
      d="M149,252.07a.37.37,0,0,1,0,.38l-5.76,16.76a.71.71,0,0,1-.74.5h-3a.76.76,0,0,1-.77-.5L133,252.48l0-.19a.35.35,0,0,1,.12-.28.45.45,0,0,1,.31-.11h3.46a.5.5,0,0,1,.5.41l3.94,12.14c0,.12.05.17.12.17s.12-.06.17-.19l3.81-12.12a.52.52,0,0,1,.53-.41h2.71A.39.39,0,0,1,149,252.07Z"/><path
      class="cls-2"
      d="M163.82,251.9h12.1c.23,0,.35.14.35.41l0,2.16a.44.44,0,0,1-.5.5h-7.66c-.3,0-.46.13-.46.39v3.48c0,.27.12.41.37.41h5.08c.27,0,.41.12.41.38v2.3c0,.23-.13.34-.38.34H168c-.22,0-.34.1-.34.29v3.77a.38.38,0,0,0,.06.24.29.29,0,0,0,.21.07h8.21c.28,0,.43.12.43.36v2.28c0,.29-.16.43-.48.43H164a.57.57,0,0,1-.41-.12.52.52,0,0,1-.12-.38V252.36C163.43,252.05,163.56,251.9,163.82,251.9Z"/><path
      class="cls-2"
      d="M205.63,269.28a.41.41,0,0,1-.12.31.4.4,0,0,1-.29.12h-3.53a.51.51,0,0,1-.53-.43l-2.59-6.72a.47.47,0,0,0-.22-.27,1.16,1.16,0,0,0-.45-.07h-2.28a.27.27,0,0,0-.22.09.24.24,0,0,0-.07.18v6.64a.55.55,0,0,1-.16.45.72.72,0,0,1-.49.13h-3.05a.5.5,0,0,1-.39-.12.53.53,0,0,1-.11-.36V252.36c0-.31.13-.46.38-.46H199a8.6,8.6,0,0,1,5,1.27,4.21,4.21,0,0,1,1.77,3.63,4.84,4.84,0,0,1-.93,3,5.1,5.1,0,0,1-2.35,1.74c-.13,0-.16.16-.1.36l3.17,7.17A.91.91,0,0,1,205.63,269.28Zm-4.9-10.48a2.07,2.07,0,0,0,.72-1.71,2.17,2.17,0,0,0-.73-1.77,3,3,0,0,0-2-.61h-3a.59.59,0,0,0-.36.08.38.38,0,0,0-.1.3V259a.49.49,0,0,0,.07.31.31.31,0,0,0,.27.1h3A3.28,3.28,0,0,0,200.73,258.8Z"/><path
      class="cls-2"
      d="M234.91,252.14a.52.52,0,0,1-.08.24l-5.64,9.24a1,1,0,0,0-.16.42,7.47,7.47,0,0,0,0,.85v6.24c0,.39-.22.58-.67.58h-3a.57.57,0,0,1-.41-.12.52.52,0,0,1-.12-.38v-6.46a1.25,1.25,0,0,0-.06-.44,2.39,2.39,0,0,0-.23-.45l-5.68-9.41a.61.61,0,0,1-.1-.26.23.23,0,0,1,.12-.2.55.55,0,0,1,.34-.09h3.6a.83.83,0,0,1,.43.09.75.75,0,0,1,.26.34l3.55,6.24q.15.27.24.27c.08,0,.16-.07.22-.22l3.5-6.29a.93.93,0,0,1,.28-.34.77.77,0,0,1,.42-.09h2.88C234.79,251.9,234.91,252,234.91,252.14Z"/><path
      class="cls-2"
      d="M248.44,252.33a.44.44,0,0,1,.13-.31.51.51,0,0,1,.35-.12H262.7c.32,0,.48.15.48.43v2.24c0,.24-.15.36-.43.36h-4.49q-.27,0-.27.24v14.08c0,.31-.13.46-.4.46h-3.44c-.24,0-.36-.14-.36-.41V255.24a.38.38,0,0,0-.06-.24.23.23,0,0,0-.2-.07H248.9c-.31,0-.46-.12-.46-.36Z"/><path
      class="cls-2"
      d="M282.19,262.1a.26.26,0,0,0-.23.1.29.29,0,0,0-.09.21v6.75a.54.54,0,0,1-.15.42.75.75,0,0,1-.49.13h-3a.57.57,0,0,1-.41-.12.52.52,0,0,1-.12-.38V252.36c0-.31.13-.46.39-.46h3.43c.26,0,.38.15.38.43v6.15c0,.27.12.41.36.41h5.55a.34.34,0,0,0,.38-.39v-6.17c0-.28.12-.43.36-.43H292c.28,0,.41.15.41.46v16.85c0,.33-.17.5-.53.5h-3a.73.73,0,0,1-.48-.12.52.52,0,0,1-.15-.43v-6.75a.31.31,0,0,0-.08-.22.33.33,0,0,0-.25-.09Z"/><path class="cls-2" d="M311.51,251.9c.26,0,.39.15.39.43v16.8a.58.58,0,0,1-.15.45.71.71,0,0,1-.5.13h-3a.56.56,0,0,1-.41-.12.52.52,0,0,1-.12-.38V252.36c0-.31.13-.46.38-.46Z"/><path
      class="cls-2"
      d="M341.8,251.9c.21,0,.31.12.31.36v17.07a.32.32,0,0,1-.13.27.5.5,0,0,1-.32.11h-2.43a1,1,0,0,1-.33,0,.7.7,0,0,1-.27-.24L331,258.67c-.07-.08-.13-.11-.18-.1a.14.14,0,0,0-.09.15v10.63a.34.34,0,0,1-.1.28.72.72,0,0,1-.38.08h-2.49c-.32,0-.48-.14-.48-.41V252.36c0-.31.14-.46.43-.46h2.9a1,1,0,0,1,.41.06.92.92,0,0,1,.29.3l7.06,10.06c.09.13.17.19.24.19s.12-.09.12-.26v-9.92a.38.38,0,0,1,.43-.43Z"/><path
      class="cls-2"
      d="M360.63,268.82a7.43,7.43,0,0,1-2.8-3.18,11,11,0,0,1-1-4.76,10.82,10.82,0,0,1,1-4.87,7.53,7.53,0,0,1,2.91-3.22,8.17,8.17,0,0,1,4.31-1.13,8.07,8.07,0,0,1,3.43.72,7,7,0,0,1,2.51,1.89,5.3,5.3,0,0,1,1.22,2.48,1.28,1.28,0,0,1,0,.36c0,.18-.1.27-.31.29l-3.16.48a.34.34,0,0,1-.27-.09.61.61,0,0,1-.12-.3,3.66,3.66,0,0,0-1.13-2.06,3.29,3.29,0,0,0-2.3-.82,3.15,3.15,0,0,0-2.81,1.47,11.83,11.83,0,0,0,.05,9.45,3.68,3.68,0,0,0,5.21.69,3.7,3.7,0,0,0,1.13-2l0-.69a.31.31,0,0,0,0-.15q0-.21-.27-.21h-2.9a.4.4,0,0,1-.29-.1.44.44,0,0,1-.1-.31V261c0-.23.13-.34.39-.34l6.41,0a.78.78,0,0,1,.51.15.54.54,0,0,1,.18.42v8.09a.36.36,0,0,1-.09.26.36.36,0,0,1-.27.1h-.77a.69.69,0,0,1-.62-.38l-.7-1.73c0-.11-.12-.11-.23,0a6.91,6.91,0,0,1-2,1.68,6.22,6.22,0,0,1-3,.65A7.88,7.88,0,0,1,360.63,268.82Z"/><path
      class="cls-2"
      d="M33.27,39.16a2.57,2.57,0,0,1,1.82-.52H143a1.61,1.61,0,0,1,1.82,1.82v6.76a2,2,0,0,1-.39,1.43,2.53,2.53,0,0,1-1.69.39H47.05a3.15,3.15,0,0,0-1.82.39c-.35.26-.52.91-.52,2V127a1.67,1.67,0,0,0,.52,1.43,3.15,3.15,0,0,0,1.82.39h75.14a1.61,1.61,0,0,1,1.82,1.82v6.76a2,2,0,0,1-.39,1.43,2.53,2.53,0,0,1-1.69.39H47.05a3.15,3.15,0,0,0-1.82.39c-.35.26-.52.91-.52,1.95v77.22c0,1,.17,1.69.52,2a3.15,3.15,0,0,0,1.82.39h99.58a2.51,2.51,0,0,1,1.69.39,2,2,0,0,1,.39,1.43v6.76a1.61,1.61,0,0,1-1.82,1.82H35.09a2.52,2.52,0,0,1-1.82-.52,3,3,0,0,1-.52-2.08V41.24A3,3,0,0,1,33.27,39.16Z"/></g>
  </g>
</svg>
